<svg width="2798" height="970" viewBox="0 0 2798 970" fill="none" xmlns="http://www.w3.org/2000/svg">
<g filter="url(#filter0_d_47_3462)">
<path d="M46 58C46 49.1634 53.1634 42 62 42H2736C2744.84 42 2752 49.1634 2752 58V883C2752 891.837 2744.84 899 2736 899H62C53.1634 899 46 891.837 46 883V58Z" fill="white"/>
<path d="M62 42.5H2736C2744.56 42.5 2751.5 49.4396 2751.5 58V883C2751.5 891.56 2744.56 898.5 2736 898.5H62C53.4396 898.5 46.5 891.56 46.5 883V58C46.5 49.4396 53.4396 42.5 62 42.5Z" stroke="#E8E8E8"/>
</g>
<path fill-rule="evenodd" clip-rule="evenodd" d="M369.689 173.375V141.401H362.502V173.375V173.375H369.689ZM434.314 141.365C434.314 147.677 434.329 153.674 434.306 159.671C434.285 163.656 431.401 166.461 427.433 166.426C423.428 166.397 421.571 164.4 421.541 159.964C421.505 154.718 421.541 149.466 421.52 144.22C421.512 143.268 421.352 142.317 421.265 141.408H414.246C414.122 141.694 413.998 141.844 413.998 141.994C413.976 149.487 413.852 156.994 413.998 164.486C414.071 168.136 415.818 170.991 419.481 172.523C423.231 170.068 427.382 170.283 431.539 170.784C434.933 171.199 438.253 170.97 441.901 170.247C441.872 160.587 441.981 150.997 441.828 141.365V141.365V141.365H434.314ZM401.932 142.202C398.932 140.842 395.736 140.255 392.531 141C389.881 141.615 387.354 142.739 384.696 143.669C383.546 142.688 382.228 141.572 380.786 140.334C378.987 141.923 377.43 143.29 375.878 144.656C379.199 148.75 379.199 148.75 379.199 154.081C379.199 159.577 379.199 165.08 379.206 170.576C379.206 171.463 379.286 172.358 379.337 173.359H386.75V155.448C386.75 151.555 388.818 148.943 392.677 147.963C397.192 146.817 399.551 148.571 399.566 153.137C399.587 158.962 399.566 164.794 399.58 170.626C399.58 171.514 399.668 172.401 399.718 173.302H407.015C407.015 165.044 407.161 156.972 406.949 148.907V148.907V148.907C406.862 145.801 404.838 143.518 401.932 142.202ZM314.467 152.85C310.826 156.45 306.304 154.925 302.044 155.169C302.351 150.725 305.897 147.333 309.727 147.591V147.591V147.591C313.324 147.834 314.715 149.265 314.467 152.85ZM315.098 165.967C312.52 166.976 309.848 167.269 307.11 166.725C304.387 166.189 303.076 164.907 302.559 162.081C304.11 162.081 305.61 162.074 307.102 162.081C310.627 162.116 314.05 161.63 317.195 159.984C323.625 156.614 324.418 147.89 318.601 143.711C312.433 139.274 303.228 139.653 297.899 145.887C293.909 150.559 293.129 156.026 294.083 161.881C294.87 166.661 297.382 170.275 301.758 172.429C307.976 175.491 318.426 173.867 323.858 169.044C322.642 167.312 321.411 165.559 320.195 163.813V163.813V163.813C318.353 164.6 316.743 165.33 315.098 165.967ZM444.834 152.828C444.361 152.893 443.924 153.186 443.385 153.416V160.701C444.383 160.543 445.205 160.35 446.035 160.3C448.118 160.171 450.157 161.28 450.9 162.876C451.737 164.665 451.257 167.22 449.654 168.601C448.846 169.295 447.885 169.997 446.873 170.261C444.441 170.898 441.951 171.585 439.453 171.685C434.887 171.878 430.3 171.585 425.727 171.721C422.028 171.836 418.547 173.696 416.625 176.802C413.29 182.197 414.856 189.683 419.894 193.318C424.788 196.846 432.084 196.216 436.417 191.837C439.54 188.681 440.887 184.745 441.594 180.223H433.955C433.693 181.038 433.461 182.005 433.081 182.913C432.666 183.908 432.237 184.924 431.626 185.805C430.11 187.98 427.387 188.695 425.123 187.644C423.332 186.813 422.152 184.402 422.545 182.377C423.025 179.893 424.322 179.013 427.613 179.006C432.273 178.992 436.934 179.149 441.587 178.999C446.247 178.841 450.601 177.525 454.322 174.633C458.713 171.227 460.213 165.058 457.963 159.949V159.949V159.949C455.888 155.24 450.121 152.099 444.834 152.828ZM340.481 166.977C339.046 166.97 337.612 166.748 335.755 166.59C335.755 161.588 335.566 156.765 335.835 151.963C335.967 149.58 338.078 148.257 340.27 147.641C342.826 146.918 345.338 147.125 347.34 149.172C350.748 152.671 351.134 159.964 348.141 163.835V163.835V163.835C346.198 166.347 343.459 166.991 340.481 166.977ZM341.487 140.269C339.659 140.376 337.86 140.956 335.741 141.386V127.854H328.045V172.215C331.496 173.395 338.493 174.254 341.996 173.975C350.37 173.309 355.671 169.151 357.31 161.444C357.892 158.732 357.921 155.776 357.513 153.029V153.029V153.029C356.297 144.756 349.926 139.783 341.487 140.269ZM279.222 159.055H278.544C276.418 153.144 274.285 147.24 272.158 141.344H265.525C263.37 147.305 261.236 153.208 259.102 159.119H258.483C256.321 153.151 254.158 147.183 252.068 141.423H244.146C247.998 152.264 251.755 162.834 255.513 173.403H262.052L268.525 155.52H269.181C271.343 161.517 273.499 167.521 275.617 173.388H282.171C285.943 162.776 289.7 152.199 293.537 141.393H285.608V141.393C283.489 147.269 281.355 153.158 279.222 159.055Z" fill="#FA5A28"/>
<path fill-rule="evenodd" clip-rule="evenodd" d="M172.819 203.283C169.522 205.204 165.461 205.204 162.164 203.283L127.328 182.98C124.031 181.058 122 177.508 122 173.665V133.059C122 129.216 124.031 125.665 127.328 123.744L162.164 103.441C165.461 101.52 169.522 101.52 172.819 103.441L207.655 123.744C210.952 125.665 212.982 129.216 212.982 133.059V173.665C212.982 177.508 210.952 181.058 207.655 182.98V182.98L172.819 203.283ZM180.673 158.604H179.838C177.216 151.118 174.586 143.64 171.964 136.172H163.784C161.126 143.722 158.496 151.199 155.865 158.686H155.101C152.435 151.127 149.768 143.568 147.191 136.271H137.422C142.172 150.003 146.805 163.39 151.438 176.777H159.501L167.484 154.127H168.292C170.958 161.722 173.616 169.327 176.229 176.759H184.31C188.961 163.317 193.594 149.921 198.326 136.235H188.548V136.235C185.935 143.676 183.304 151.136 180.673 158.604Z" fill="#FA5A28"/>
<path d="M250.128 195.347C248.912 195.347 247.842 195.068 246.917 194.511C245.992 193.941 245.27 193.13 244.751 192.079C244.232 191.028 243.972 189.774 243.972 188.317C243.972 186.873 244.225 185.625 244.732 184.574C245.251 183.51 245.973 182.693 246.898 182.123C247.823 181.54 248.906 181.249 250.147 181.249C251.819 181.249 253.117 181.667 254.042 182.503C254.967 183.339 255.568 184.498 255.847 185.98L253.7 186.094C253.523 185.169 253.143 184.447 252.56 183.928C251.977 183.396 251.173 183.13 250.147 183.13C249.324 183.13 248.608 183.339 248 183.757C247.405 184.175 246.936 184.77 246.594 185.543C246.265 186.316 246.1 187.24 246.1 188.317C246.1 189.394 246.265 190.318 246.594 191.091C246.936 191.864 247.411 192.453 248.019 192.858C248.627 193.263 249.33 193.466 250.128 193.466C251.217 193.466 252.06 193.181 252.655 192.611C253.263 192.028 253.643 191.23 253.795 190.217L255.942 190.331C255.777 191.357 255.448 192.244 254.954 192.991C254.46 193.738 253.808 194.321 252.997 194.739C252.186 195.144 251.23 195.347 250.128 195.347ZM264.414 195.347C263.109 195.347 261.988 195.068 261.051 194.511C260.114 193.941 259.392 193.13 258.885 192.079C258.378 191.028 258.125 189.774 258.125 188.317C258.125 186.86 258.378 185.606 258.885 184.555C259.392 183.491 260.114 182.674 261.051 182.104C261.988 181.534 263.109 181.249 264.414 181.249C265.731 181.249 266.859 181.534 267.796 182.104C268.746 182.674 269.468 183.491 269.962 184.555C270.469 185.606 270.722 186.86 270.722 188.317C270.722 189.774 270.469 191.028 269.962 192.079C269.468 193.13 268.746 193.941 267.796 194.511C266.859 195.068 265.731 195.347 264.414 195.347ZM264.414 193.466C265.288 193.466 266.035 193.263 266.656 192.858C267.289 192.453 267.771 191.87 268.1 191.11C268.429 190.337 268.594 189.406 268.594 188.317C268.594 187.228 268.429 186.297 268.1 185.524C267.771 184.751 267.289 184.162 266.656 183.757C266.035 183.339 265.288 183.13 264.414 183.13C263.553 183.13 262.812 183.339 262.191 183.757C261.57 184.162 261.089 184.751 260.747 185.524C260.418 186.297 260.253 187.228 260.253 188.317C260.253 189.406 260.418 190.337 260.747 191.11C261.089 191.87 261.57 192.453 262.191 192.858C262.812 193.263 263.553 193.466 264.414 193.466ZM273.521 195.043V181.553H276.124L282.356 192.554V181.553H284.408V195.043H281.71L275.573 184.289V195.043H273.521ZM290.336 195.043V183.434H286.194V181.553H296.53V183.434H292.388V195.043H290.336ZM298.506 195.043V181.553H303.883C304.845 181.553 305.675 181.718 306.372 182.047C307.068 182.376 307.607 182.845 307.987 183.453C308.367 184.061 308.557 184.783 308.557 185.619C308.557 186.227 308.417 186.772 308.139 187.253C307.873 187.734 307.512 188.121 307.056 188.412C306.612 188.691 306.137 188.849 305.631 188.887L305.536 188.716C306.384 188.716 307.043 188.912 307.512 189.305C307.98 189.685 308.253 190.287 308.329 191.11L308.69 195.043H306.619L306.296 191.376C306.258 190.831 306.074 190.432 305.745 190.179C305.415 189.913 304.877 189.78 304.13 189.78H300.558V195.043H298.506ZM300.558 187.899H303.921C304.693 187.899 305.301 187.709 305.745 187.329C306.201 186.936 306.429 186.385 306.429 185.676C306.429 184.954 306.201 184.403 305.745 184.023C305.289 183.63 304.624 183.434 303.75 183.434H300.558V187.899ZM317.24 195.347C315.936 195.347 314.815 195.068 313.877 194.511C312.94 193.941 312.218 193.13 311.711 192.079C311.205 191.028 310.951 189.774 310.951 188.317C310.951 186.86 311.205 185.606 311.711 184.555C312.218 183.491 312.94 182.674 313.877 182.104C314.815 181.534 315.936 181.249 317.24 181.249C318.558 181.249 319.685 181.534 320.622 182.104C321.572 182.674 322.294 183.491 322.788 184.555C323.295 185.606 323.548 186.86 323.548 188.317C323.548 189.774 323.295 191.028 322.788 192.079C322.294 193.13 321.572 193.941 320.622 194.511C319.685 195.068 318.558 195.347 317.24 195.347ZM317.24 193.466C318.114 193.466 318.862 193.263 319.482 192.858C320.116 192.453 320.597 191.87 320.926 191.11C321.256 190.337 321.42 189.406 321.42 188.317C321.42 187.228 321.256 186.297 320.926 185.524C320.597 184.751 320.116 184.162 319.482 183.757C318.862 183.339 318.114 183.13 317.24 183.13C316.379 183.13 315.638 183.339 315.017 183.757C314.397 184.162 313.915 184.751 313.573 185.524C313.244 186.297 313.079 187.228 313.079 188.317C313.079 189.406 313.244 190.337 313.573 191.11C313.915 191.87 314.397 192.453 315.017 192.858C315.638 193.263 316.379 193.466 317.24 193.466ZM326.422 195.043V181.553H328.474V194.283L327.391 193.162H335.048V195.043H326.422ZM343.335 195.043V181.553H348.37C349.915 181.553 351.119 181.927 351.98 182.674C352.841 183.409 353.272 184.435 353.272 185.752C353.272 186.626 353.076 187.386 352.683 188.032C352.29 188.665 351.727 189.153 350.992 189.495C350.27 189.824 349.396 189.989 348.37 189.989H345.387V195.043H343.335ZM345.387 188.127H348.313C349.238 188.127 349.941 187.931 350.422 187.538C350.903 187.133 351.144 186.537 351.144 185.752C351.144 184.979 350.903 184.403 350.422 184.023C349.941 183.63 349.238 183.434 348.313 183.434H345.387V188.127ZM353.748 195.043L358.612 181.553H361.215L366.079 195.043H363.894L362.659 191.528H357.149L355.933 195.043H353.748ZM357.795 189.666H362.032L359.904 183.51L357.795 189.666ZM368.301 195.043V181.553H370.904L377.136 192.554V181.553H379.188V195.043H376.49L370.353 184.289V195.043H368.301ZM382.732 195.043V181.553H391.51V183.434H384.784V187.367H391.282V189.191H384.784V193.162H391.662V195.043H382.732ZM394.919 195.043V181.553H396.971V194.283L395.888 193.162H403.545V195.043H394.919Z" fill="black"/>
<path d="M1005.24 570.243C1007.59 567.899 1007.59 564.1 1005.24 561.757L967.059 523.574C964.716 521.23 960.917 521.23 958.574 523.574C956.23 525.917 956.23 529.716 958.574 532.059L992.515 566L958.574 599.941C956.23 602.284 956.23 606.083 958.574 608.426C960.917 610.77 964.716 610.77 967.059 608.426L1005.24 570.243ZM778 566L778 572L1001 572L1001 566L1001 560L778 560L778 566Z" fill="url(#paint0_linear_47_3462)"/>
<path d="M2125.24 570.243C2127.59 567.899 2127.59 564.1 2125.24 561.757L2087.06 523.574C2084.72 521.23 2080.92 521.23 2078.57 523.574C2076.23 525.917 2076.23 529.716 2078.57 532.059L2112.51 566L2078.57 599.941C2076.23 602.284 2076.23 606.083 2078.57 608.426C2080.92 610.77 2084.72 610.77 2087.06 608.426L2125.24 570.243ZM1898 566L1898 572L2121 572L2121 566L2121 560L1898 560L1898 566Z" fill="url(#paint1_linear_47_3462)"/>
<rect width="526" height="526" transform="translate(2186 267)" fill="white"/>
<g filter="url(#filter1_d_47_3462)">
<path d="M2328.46 705.333C2295.22 705.333 2266.82 693.826 2243.26 670.814C2219.7 647.801 2207.92 619.675 2207.92 586.435C2207.92 557.943 2216.5 532.556 2233.67 510.274C2248.87 490.545 2268.22 477.116 2291.73 469.988C2297.41 468.265 2301.97 463.93 2303.86 458.301C2313.68 428.911 2331.01 404.776 2355.85 385.897C2383.25 365.076 2414.3 354.666 2449 354.666C2491.74 354.666 2527.99 369.551 2557.76 399.321C2584.17 425.727 2598.86 457.234 2601.85 493.842C2602.51 501.939 2608.55 508.642 2616.43 510.637C2635.48 515.46 2651.72 525.475 2665.15 540.684C2681.77 559.496 2690.08 581.504 2690.08 606.708C2690.08 634.104 2680.49 657.39 2661.32 676.567C2642.14 695.744 2618.85 705.333 2591.46 705.333H2328.46ZM2328.46 661.499H2591.46C2606.8 661.499 2619.77 656.203 2630.36 645.61C2640.95 635.017 2646.25 622.049 2646.25 606.708C2646.25 591.366 2640.95 578.399 2630.36 567.806C2619.77 557.213 2606.8 551.916 2591.46 551.916H2574.58C2565.75 551.916 2558.58 544.753 2558.58 535.916V508.083C2558.58 477.765 2547.9 451.921 2526.53 430.552C2505.16 409.184 2479.32 398.499 2449 398.499C2418.68 398.499 2392.84 409.184 2371.47 430.552C2352.72 449.302 2342.2 471.497 2339.9 497.138C2339.36 503.166 2334.51 508.083 2328.46 508.083C2307.27 508.083 2289.19 515.571 2274.21 530.547C2259.24 545.524 2251.75 563.605 2251.75 584.791C2251.75 605.977 2259.24 624.058 2274.21 639.035C2289.19 654.011 2307.27 661.499 2328.46 661.499Z" fill="#F5F5F5"/>
<path d="M2449 355.166C2491.61 355.166 2527.73 370 2557.41 399.675C2583.73 425.998 2598.37 457.395 2601.35 493.883C2602.03 502.207 2608.24 509.078 2616.31 511.121C2635.25 515.919 2651.41 525.879 2664.78 541.015C2681.32 559.735 2689.58 581.625 2689.58 606.708C2689.58 633.973 2680.05 657.132 2660.96 676.214C2641.88 695.296 2618.72 704.833 2591.46 704.833H2328.46C2295.35 704.833 2267.07 693.376 2243.61 670.456C2220.14 647.539 2208.42 619.542 2208.42 586.435C2208.42 558.052 2216.97 532.772 2234.07 510.579C2249.2 490.931 2268.47 477.564 2291.87 470.466C2297.7 468.698 2302.4 464.247 2304.33 458.46C2314.12 429.166 2331.4 405.114 2356.16 386.295C2383.46 365.541 2414.41 355.166 2449 355.166ZM2449 397.999C2418.55 397.999 2392.58 408.736 2371.12 430.199C2352.29 449.029 2341.71 471.332 2339.4 497.093C2338.88 502.892 2334.22 507.583 2328.46 507.583C2307.14 507.583 2288.93 515.123 2273.86 530.193C2258.79 545.264 2251.25 563.472 2251.25 584.791C2251.25 606.11 2258.79 624.318 2273.86 639.389C2288.93 654.459 2307.14 661.999 2328.46 661.999H2591.46C2606.93 661.999 2620.02 656.652 2630.71 645.963C2641.4 635.274 2646.75 622.179 2646.75 606.708C2646.75 591.237 2641.4 578.141 2630.71 567.452C2620.02 556.763 2606.93 551.416 2591.46 551.416H2574.58C2566.02 551.416 2559.08 544.476 2559.08 535.916V508.083C2559.08 477.633 2548.35 451.662 2526.88 430.199C2505.42 408.736 2479.45 397.999 2449 397.999Z" stroke="#C5C5C5"/>
</g>
<path d="M2508.09 596.037L2456.41 625.882C2451.51 628.706 2445.49 628.706 2440.6 625.882L2388.91 596.037C2384.01 593.213 2381 587.994 2381 582.345V522.656C2381 517.007 2384.01 511.787 2388.91 508.963L2440.6 479.119C2445.49 476.294 2451.51 476.294 2456.41 479.119L2508.09 508.963C2512.99 511.787 2516 517.007 2516 522.656V582.345C2516 587.994 2512.99 593.213 2508.09 596.037ZM2479.74 527.324C2475.87 538.262 2471.96 549.228 2468.06 560.206H2466.82C2462.93 549.201 2459.03 538.209 2455.13 527.231H2443C2439.05 538.329 2435.15 549.321 2431.25 560.327H2430.11C2426.16 549.214 2422.2 538.103 2418.38 527.377H2403.88C2410.93 547.562 2417.8 567.241 2424.68 586.92H2436.64L2448.49 553.624H2449.69C2453.64 564.79 2457.59 575.968 2461.46 586.893H2473.45C2480.36 567.134 2487.23 547.443 2494.25 527.324H2479.74Z" fill="#FA5A28"/>
<path d="M2257.35 752V724.31H2263.13L2271.36 747.047L2279.58 724.31H2285.36V752H2281.14V731.72L2273.69 751.961H2269.02L2261.57 731.72V752H2257.35ZM2293.66 757.85V754.457H2296.19C2296.9 754.457 2297.42 754.353 2297.75 754.145C2298.09 753.937 2298.35 753.586 2298.53 753.092L2299.2 751.376H2297.91L2290.42 731.252H2294.79L2300.48 747.554L2305.9 731.252H2310.31L2302.04 754.418C2301.63 755.614 2301 756.485 2300.17 757.031C2299.37 757.577 2298.23 757.85 2296.78 757.85H2293.66ZM2331.91 752L2324.58 724.31H2329.07L2334.45 746.189L2339.83 724.31H2344.12L2349.5 746.189L2354.85 724.31H2359.41L2352.04 752H2347.12L2341.98 731.798L2336.83 752H2331.91ZM2371.84 752.468C2369.81 752.468 2368.06 752.026 2366.58 751.142C2365.12 750.258 2363.99 748.997 2363.18 747.359C2362.4 745.721 2362.01 743.81 2362.01 741.626C2362.01 739.442 2362.4 737.544 2363.18 735.932C2363.99 734.294 2365.12 733.033 2366.58 732.149C2368.03 731.239 2369.75 730.784 2371.73 730.784C2373.6 730.784 2375.25 731.226 2376.68 732.11C2378.11 732.968 2379.21 734.216 2379.99 735.854C2380.8 737.492 2381.2 739.468 2381.2 741.782V742.835H2366.3C2366.41 744.863 2366.94 746.384 2367.9 747.398C2368.89 748.412 2370.22 748.919 2371.88 748.919C2373.1 748.919 2374.12 748.633 2374.92 748.061C2375.73 747.489 2376.29 746.722 2376.6 745.76L2380.89 746.033C2380.34 747.957 2379.27 749.517 2377.65 750.713C2376.07 751.883 2374.13 752.468 2371.84 752.468ZM2366.3 739.715H2376.83C2376.7 737.869 2376.17 736.504 2375.24 735.62C2374.33 734.736 2373.16 734.294 2371.73 734.294C2370.24 734.294 2369.02 734.762 2368.06 735.698C2367.12 736.608 2366.54 737.947 2366.3 739.715ZM2396.97 752.468C2395.54 752.468 2394.27 752.156 2393.15 751.532C2392.06 750.882 2391.22 749.998 2390.62 748.88L2390.5 752H2386.64V724.31H2390.77V734.177C2391.32 733.267 2392.13 732.474 2393.19 731.798C2394.28 731.122 2395.54 730.784 2396.97 730.784C2398.77 730.784 2400.33 731.226 2401.65 732.11C2402.98 732.994 2403.99 734.255 2404.7 735.893C2405.42 737.505 2405.79 739.416 2405.79 741.626C2405.79 743.836 2405.42 745.76 2404.7 747.398C2403.99 749.01 2402.98 750.258 2401.65 751.142C2400.33 752.026 2398.77 752.468 2396.97 752.468ZM2396.31 748.88C2397.9 748.88 2399.16 748.243 2400.09 746.969C2401.03 745.669 2401.5 743.888 2401.5 741.626C2401.5 739.364 2401.03 737.596 2400.09 736.322C2399.16 735.022 2397.91 734.372 2396.35 734.372C2395.18 734.372 2394.18 734.658 2393.35 735.23C2392.52 735.802 2391.88 736.634 2391.44 737.726C2390.99 738.792 2390.77 740.092 2390.77 741.626C2390.77 743.108 2390.99 744.395 2391.44 745.487C2391.88 746.579 2392.52 747.424 2393.35 748.022C2394.18 748.594 2395.17 748.88 2396.31 748.88ZM2411.23 752V731.252H2415.37V752H2411.23ZM2411.16 728.249V724.115H2415.45V728.249H2411.16ZM2422.8 752V731.252H2426.59L2426.74 736.79L2426.24 736.517C2426.47 735.165 2426.91 734.073 2427.56 733.241C2428.21 732.409 2429 731.798 2429.94 731.408C2430.88 730.992 2431.89 730.784 2432.98 730.784C2434.54 730.784 2435.83 731.135 2436.84 731.837C2437.88 732.513 2438.66 733.449 2439.18 734.645C2439.73 735.815 2440 737.154 2440 738.662V752H2435.87V739.91C2435.87 738.688 2435.74 737.661 2435.48 736.829C2435.22 735.997 2434.79 735.36 2434.19 734.918C2433.59 734.476 2432.81 734.255 2431.85 734.255C2430.4 734.255 2429.21 734.736 2428.3 735.698C2427.39 736.66 2426.94 738.064 2426.94 739.91V752H2422.8ZM2446.97 757.85V754.457H2449.5C2450.21 754.457 2450.73 754.353 2451.06 754.145C2451.4 753.937 2451.66 753.586 2451.84 753.092L2452.51 751.376H2451.22L2443.73 731.252H2448.1L2453.79 747.554L2459.21 731.252H2463.62L2455.35 754.418C2454.94 755.614 2454.31 756.485 2453.48 757.031C2452.68 757.577 2451.54 757.85 2450.09 757.85H2446.97ZM2479.76 752V724.31H2483.98V752H2479.76ZM2491.86 752V731.252H2495.64L2495.8 736.79L2495.29 736.517C2495.52 735.165 2495.96 734.073 2496.61 733.241C2497.26 732.409 2498.06 731.798 2498.99 731.408C2499.93 730.992 2500.94 730.784 2502.04 730.784C2503.6 730.784 2504.88 731.135 2505.9 731.837C2506.94 732.513 2507.72 733.449 2508.24 734.645C2508.78 735.815 2509.06 737.154 2509.06 738.662V752H2504.92V739.91C2504.92 738.688 2504.79 737.661 2504.53 736.829C2504.27 735.997 2503.84 735.36 2503.24 734.918C2502.65 734.476 2501.87 734.255 2500.9 734.255C2499.45 734.255 2498.27 734.736 2497.36 735.698C2496.45 736.66 2495.99 738.064 2495.99 739.91V752H2491.86ZM2523.68 752.468C2521.73 752.468 2520.08 752.169 2518.73 751.571C2517.41 750.973 2516.38 750.154 2515.65 749.114C2514.92 748.048 2514.51 746.826 2514.4 745.448L2518.65 745.253C2518.86 746.397 2519.36 747.307 2520.14 747.983C2520.92 748.659 2522.1 748.997 2523.68 748.997C2524.98 748.997 2526.01 748.789 2526.77 748.373C2527.52 747.957 2527.9 747.294 2527.9 746.384C2527.9 745.89 2527.77 745.474 2527.51 745.136C2527.27 744.772 2526.8 744.473 2526.1 744.239C2525.4 743.979 2524.36 743.732 2522.98 743.498C2520.93 743.108 2519.32 742.653 2518.15 742.133C2516.98 741.613 2516.14 740.95 2515.65 740.144C2515.16 739.338 2514.91 738.363 2514.91 737.219C2514.91 735.321 2515.61 733.774 2517.02 732.578C2518.45 731.382 2520.5 730.784 2523.18 730.784C2524.97 730.784 2526.48 731.096 2527.7 731.72C2528.92 732.318 2529.87 733.137 2530.55 734.177C2531.25 735.191 2531.69 736.335 2531.87 737.609L2527.62 737.843C2527.49 737.115 2527.23 736.491 2526.84 735.971C2526.48 735.425 2525.99 735.009 2525.36 734.723C2524.74 734.411 2524 734.255 2523.14 734.255C2521.81 734.255 2520.82 734.515 2520.17 735.035C2519.52 735.555 2519.2 736.231 2519.2 737.063C2519.2 737.687 2519.34 738.194 2519.63 738.584C2519.94 738.974 2520.43 739.299 2521.11 739.559C2521.79 739.793 2522.68 740.001 2523.8 740.183C2525.96 740.547 2527.65 741.002 2528.87 741.548C2530.09 742.068 2530.95 742.718 2531.45 743.498C2531.94 744.278 2532.19 745.227 2532.19 746.345C2532.19 747.645 2531.82 748.75 2531.09 749.66C2530.37 750.57 2529.37 751.272 2528.09 751.766C2526.82 752.234 2525.35 752.468 2523.68 752.468ZM2544.81 752C2542.84 752 2541.38 751.545 2540.44 750.635C2539.51 749.725 2539.04 748.308 2539.04 746.384V726.377H2543.17V746.072C2543.17 747.034 2543.38 747.697 2543.8 748.061C2544.21 748.425 2544.85 748.607 2545.71 748.607H2548.67V752H2544.81ZM2535.88 734.645V731.252H2548.67V734.645H2535.88ZM2559.57 752.468C2557.41 752.468 2555.68 751.974 2554.38 750.986C2553.11 749.998 2552.47 748.607 2552.47 746.813C2552.47 745.019 2553 743.628 2554.07 742.64C2555.16 741.626 2556.84 740.898 2559.1 740.456L2566.24 739.091C2566.24 737.479 2565.86 736.283 2565.11 735.503C2564.35 734.697 2563.23 734.294 2561.75 734.294C2560.43 734.294 2559.39 734.593 2558.63 735.191C2557.88 735.763 2557.36 736.621 2557.07 737.765L2552.82 737.492C2553.21 735.412 2554.17 733.774 2555.71 732.578C2557.27 731.382 2559.28 730.784 2561.75 730.784C2564.56 730.784 2566.69 731.538 2568.15 733.046C2569.63 734.528 2570.37 736.621 2570.37 739.325V747.398C2570.37 747.892 2570.45 748.243 2570.61 748.451C2570.79 748.633 2571.07 748.724 2571.46 748.724H2572.2V752C2572.07 752.026 2571.87 752.052 2571.58 752.078C2571.29 752.104 2571 752.117 2570.68 752.117C2569.8 752.117 2569.03 751.974 2568.38 751.688C2567.76 751.402 2567.29 750.934 2566.98 750.284C2566.67 749.608 2566.51 748.711 2566.51 747.593L2566.94 747.788C2566.73 748.698 2566.28 749.504 2565.57 750.206C2564.9 750.908 2564.03 751.467 2562.96 751.883C2561.92 752.273 2560.79 752.468 2559.57 752.468ZM2560.23 749.192C2561.48 749.192 2562.55 748.958 2563.43 748.49C2564.31 747.996 2565 747.32 2565.5 746.462C2565.99 745.604 2566.24 744.629 2566.24 743.537V742.211L2560.15 743.381C2558.91 743.615 2558.02 743.992 2557.5 744.512C2557.01 745.006 2556.76 745.643 2556.76 746.423C2556.76 747.307 2557.06 747.996 2557.66 748.49C2558.28 748.958 2559.14 749.192 2560.23 749.192ZM2576.94 752V731.252H2580.73L2580.88 736.79L2580.37 736.517C2580.61 735.165 2581.05 734.073 2581.7 733.241C2582.35 732.409 2583.14 731.798 2584.08 731.408C2585.02 730.992 2586.03 730.784 2587.12 730.784C2588.68 730.784 2589.97 731.135 2590.98 731.837C2592.02 732.513 2592.8 733.449 2593.32 734.645C2593.87 735.815 2594.14 737.154 2594.14 738.662V752H2590.01V739.91C2590.01 738.688 2589.88 737.661 2589.62 736.829C2589.36 735.997 2588.93 735.36 2588.33 734.918C2587.73 734.476 2586.95 734.255 2585.99 734.255C2584.53 734.255 2583.35 734.736 2582.44 735.698C2581.53 736.66 2581.08 738.064 2581.08 739.91V752H2576.94ZM2609.32 752.468C2607.34 752.468 2605.61 752.026 2604.13 751.142C2602.65 750.258 2601.5 748.997 2600.7 747.359C2599.89 745.721 2599.49 743.81 2599.49 741.626C2599.49 739.442 2599.89 737.544 2600.7 735.932C2601.5 734.294 2602.65 733.033 2604.13 732.149C2605.61 731.239 2607.34 730.784 2609.32 730.784C2611.01 730.784 2612.5 731.083 2613.8 731.681C2615.13 732.253 2616.19 733.098 2617 734.216C2617.83 735.334 2618.36 736.699 2618.6 738.311L2614.27 738.545C2614.06 737.193 2613.52 736.166 2612.63 735.464C2611.75 734.736 2610.64 734.372 2609.32 734.372C2607.57 734.372 2606.21 735.022 2605.22 736.322C2604.26 737.596 2603.78 739.364 2603.78 741.626C2603.78 743.888 2604.26 745.669 2605.22 746.969C2606.21 748.243 2607.57 748.88 2609.32 748.88C2610.64 748.88 2611.75 748.516 2612.63 747.788C2613.52 747.034 2614.06 745.903 2614.27 744.395L2618.6 744.629C2618.36 746.215 2617.83 747.593 2617 748.763C2616.19 749.933 2615.13 750.843 2613.8 751.493C2612.5 752.143 2611.01 752.468 2609.32 752.468ZM2632.16 752.468C2630.13 752.468 2628.38 752.026 2626.89 751.142C2625.44 750.258 2624.31 748.997 2623.5 747.359C2622.72 745.721 2622.33 743.81 2622.33 741.626C2622.33 739.442 2622.72 737.544 2623.5 735.932C2624.31 734.294 2625.44 733.033 2626.89 732.149C2628.35 731.239 2630.07 730.784 2632.04 730.784C2633.91 730.784 2635.57 731.226 2637 732.11C2638.43 732.968 2639.53 734.216 2640.31 735.854C2641.12 737.492 2641.52 739.468 2641.52 741.782V742.835H2626.62C2626.73 744.863 2627.26 746.384 2628.22 747.398C2629.21 748.412 2630.53 748.919 2632.2 748.919C2633.42 748.919 2634.43 748.633 2635.24 748.061C2636.05 747.489 2636.61 746.722 2636.92 745.76L2641.21 746.033C2640.66 747.957 2639.58 749.517 2637.97 750.713C2636.38 751.883 2634.45 752.468 2632.16 752.468ZM2626.62 739.715H2637.15C2637.02 737.869 2636.49 736.504 2635.55 735.62C2634.64 734.736 2633.47 734.294 2632.04 734.294C2630.56 734.294 2629.34 734.762 2628.38 735.698C2627.44 736.608 2626.86 737.947 2626.62 739.715Z" fill="black"/>
<rect x="122" y="222" width="337" height="110" fill="#59626D"/>
<path d="M158.044 282V245.08H168.86C171.425 245.08 173.644 245.531 175.516 246.432C177.388 247.299 178.844 248.564 179.884 250.228C180.924 251.857 181.444 253.833 181.444 256.156C181.444 258.479 180.924 260.455 179.884 262.084C178.844 263.713 177.388 264.961 175.516 265.828C173.644 266.695 171.425 267.128 168.86 267.128H161.58V282H158.044ZM161.58 263.696H168.444C171.529 263.696 173.835 263.055 175.36 261.772C176.92 260.489 177.7 258.617 177.7 256.156C177.7 253.66 176.92 251.771 175.36 250.488C173.835 249.171 171.529 248.512 168.444 248.512H161.58V263.696ZM187.04 282V245.08H198.168C201.912 245.08 204.876 246.033 207.06 247.94C209.244 249.847 210.336 252.499 210.336 255.896C210.336 257.699 209.954 259.276 209.192 260.628C208.429 261.945 207.406 263.003 206.124 263.8C204.876 264.563 203.506 265.031 202.016 265.204L201.808 264.58C204.165 264.684 206.002 265.256 207.32 266.296C208.672 267.336 209.452 269.017 209.66 271.34L210.544 282H207.008L206.176 271.808C206.072 270.664 205.777 269.711 205.292 268.948C204.841 268.185 204.113 267.631 203.108 267.284C202.137 266.903 200.82 266.712 199.156 266.712H190.576V282H187.04ZM190.576 263.28H198.116C200.854 263.28 202.952 262.656 204.408 261.408C205.898 260.125 206.644 258.288 206.644 255.896C206.644 253.469 205.898 251.632 204.408 250.384C202.952 249.101 200.854 248.46 198.116 248.46H190.576V263.28ZM228.879 282.832C226.037 282.832 223.61 282.087 221.599 280.596C219.589 279.071 218.046 276.869 216.971 273.992C215.931 271.115 215.411 267.648 215.411 263.592C215.411 259.501 215.931 256.017 216.971 253.14C218.046 250.263 219.589 248.061 221.599 246.536C223.61 245.011 226.037 244.248 228.879 244.248C231.722 244.248 234.149 245.011 236.159 246.536C238.17 248.061 239.695 250.263 240.735 253.14C241.81 256.017 242.347 259.501 242.347 263.592C242.347 267.648 241.81 271.115 240.735 273.992C239.695 276.869 238.17 279.071 236.159 280.596C234.149 282.087 231.722 282.832 228.879 282.832ZM228.879 279.348C230.959 279.348 232.727 278.741 234.183 277.528C235.639 276.315 236.731 274.529 237.459 272.172C238.222 269.815 238.603 266.955 238.603 263.592C238.603 260.229 238.222 257.369 237.459 255.012C236.731 252.62 235.639 250.817 234.183 249.604C232.727 248.356 230.959 247.732 228.879 247.732C226.799 247.732 225.031 248.356 223.575 249.604C222.119 250.817 221.01 252.62 220.247 255.012C219.519 257.369 219.155 260.229 219.155 263.592C219.155 266.955 219.519 269.815 220.247 272.172C221.01 274.529 222.119 276.315 223.575 277.528C225.031 278.741 226.799 279.348 228.879 279.348ZM257.667 282.832C255.31 282.832 253.247 282.312 251.479 281.272C249.711 280.197 248.307 278.707 247.267 276.8C246.262 274.859 245.724 272.588 245.655 269.988L249.191 269.676C249.295 272.865 250.058 275.275 251.479 276.904C252.9 278.533 254.963 279.348 257.667 279.348C260.475 279.348 262.607 278.516 264.063 276.852C265.519 275.153 266.247 272.657 266.247 269.364V245.08H269.783V269.364C269.783 273.559 268.708 276.852 266.559 279.244C264.41 281.636 261.446 282.832 257.667 282.832ZM278.395 282V245.08H300.547V248.512H281.931V261.824H299.923V265.204H281.931V278.568H300.963V282H278.395ZM319.454 282.832C316.612 282.832 314.168 282.052 312.122 280.492C310.112 278.932 308.552 276.713 307.442 273.836C306.368 270.959 305.83 267.544 305.83 263.592C305.83 259.605 306.368 256.173 307.442 253.296C308.552 250.419 310.112 248.2 312.122 246.64C314.168 245.045 316.612 244.248 319.454 244.248C322.713 244.248 325.434 245.305 327.618 247.42C329.802 249.535 331.276 252.481 332.038 256.26L328.294 256.572C327.67 253.66 326.578 251.459 325.018 249.968C323.493 248.477 321.638 247.732 319.454 247.732C317.409 247.732 315.641 248.356 314.15 249.604C312.694 250.852 311.568 252.672 310.77 255.064C309.973 257.421 309.574 260.264 309.574 263.592C309.574 266.885 309.973 269.711 310.77 272.068C311.568 274.425 312.694 276.228 314.15 277.476C315.641 278.724 317.409 279.348 319.454 279.348C321.777 279.348 323.736 278.551 325.33 276.956C326.96 275.327 328.052 272.917 328.606 269.728L332.35 269.988C331.692 273.975 330.236 277.112 327.982 279.4C325.729 281.688 322.886 282.832 319.454 282.832ZM347.67 282V248.512H335.918V245.08H362.958V248.512H351.206V282H347.67ZM395.833 282L407.377 245.08H412.057L423.601 282H419.805L409.717 248.356L399.629 282H395.833ZM401.345 270.924L402.541 267.492H416.893L418.089 270.924H401.345Z" fill="white"/>
<rect x="122.5" y="301.5" width="601" height="528" rx="19.5" fill="#F5F5F5" stroke="#FA5A28"/>
<g filter="url(#filter2_d_47_3462)">
<path d="M166 354C166 345.163 173.163 338 182 338H664C672.837 338 680 345.163 680 354V774C680 782.837 672.837 790 664 790H182C173.163 790 166 782.837 166 774V354Z" fill="white"/>
<path d="M182 338.5H664C672.56 338.5 679.5 345.44 679.5 354V774C679.5 782.56 672.56 789.5 664 789.5H182C173.44 789.5 166.5 782.56 166.5 774V354C166.5 345.44 173.44 338.5 182 338.5Z" stroke="#E8E8E8"/>
</g>
<path d="M320.2 419V382.08H324.672V416.92L322.436 414.632H343.08V419H320.2ZM349.3 419V414.632H358.504V386.448H349.3V382.08H372.18V386.448H362.976V414.632H372.18V419H349.3ZM390.983 419.832C388.037 419.832 385.541 419.052 383.495 417.492C381.45 415.932 379.89 413.713 378.815 410.836C377.775 407.959 377.255 404.544 377.255 400.592C377.255 396.605 377.775 393.173 378.815 390.296C379.89 387.419 381.45 385.2 383.495 383.64C385.541 382.045 388.037 381.248 390.983 381.248C394.242 381.248 397.015 382.323 399.303 384.472C401.591 386.587 403.117 389.551 403.879 393.364L399.095 393.676C398.506 391.007 397.483 388.996 396.027 387.644C394.606 386.292 392.925 385.616 390.983 385.616C389.007 385.616 387.343 386.205 385.991 387.384C384.674 388.528 383.669 390.227 382.975 392.48C382.282 394.699 381.935 397.403 381.935 400.592C381.935 403.747 382.282 406.433 382.975 408.652C383.669 410.871 384.674 412.569 385.991 413.748C387.343 414.892 389.007 415.464 390.983 415.464C393.133 415.464 394.953 414.719 396.443 413.228C397.934 411.737 398.939 409.519 399.459 406.572L404.191 406.832C403.533 410.888 402.042 414.077 399.719 416.4C397.397 418.688 394.485 419.832 390.983 419.832ZM410.099 419V382.08H432.563V386.448H414.571V398.356H431.939V402.62H414.571V414.632H432.979V419H410.099ZM439.199 419V382.08H445.543L458.647 413.904V382.08H463.119V419H456.775L443.671 387.176V419H439.199ZM481.87 419.832C479.27 419.832 476.965 419.295 474.954 418.22C472.944 417.145 471.332 415.672 470.118 413.8C468.905 411.893 468.194 409.692 467.986 407.196L472.666 406.884C472.909 408.721 473.429 410.281 474.226 411.564C475.058 412.847 476.116 413.817 477.398 414.476C478.716 415.135 480.241 415.464 481.974 415.464C483.708 415.464 485.164 415.256 486.342 414.84C487.521 414.389 488.405 413.748 488.994 412.916C489.618 412.049 489.93 411.027 489.93 409.848C489.93 408.669 489.653 407.647 489.098 406.78C488.578 405.879 487.573 405.047 486.082 404.284C484.626 403.521 482.46 402.741 479.582 401.944C477.017 401.216 474.937 400.419 473.342 399.552C471.782 398.685 470.638 397.628 469.91 396.38C469.217 395.132 468.87 393.589 468.87 391.752C468.87 389.672 469.356 387.852 470.326 386.292C471.332 384.697 472.753 383.467 474.59 382.6C476.428 381.699 478.612 381.248 481.142 381.248C483.673 381.248 485.84 381.768 487.642 382.808C489.445 383.813 490.866 385.2 491.906 386.968C492.981 388.736 493.657 390.747 493.934 393L489.254 393.312C489.046 391.821 488.613 390.504 487.954 389.36C487.296 388.181 486.394 387.263 485.25 386.604C484.106 385.945 482.702 385.616 481.038 385.616C478.75 385.616 476.93 386.171 475.578 387.28C474.226 388.355 473.55 389.776 473.55 391.544C473.55 392.688 473.793 393.641 474.278 394.404C474.798 395.132 475.7 395.791 476.982 396.38C478.265 396.935 480.068 397.541 482.39 398.2C485.406 399.032 487.798 399.968 489.566 401.008C491.369 402.048 492.652 403.296 493.414 404.752C494.212 406.173 494.61 407.907 494.61 409.952C494.61 411.893 494.073 413.609 492.998 415.1C491.924 416.591 490.433 417.752 488.526 418.584C486.62 419.416 484.401 419.832 481.87 419.832ZM500.518 419V382.08H522.982V386.448H504.99V398.356H522.358V402.62H504.99V414.632H523.398V419H500.518Z" fill="#59626D"/>
<path d="M227.458 404.449C226.352 404.449 225.417 404.068 224.654 403.305C223.891 402.542 223.51 401.607 223.51 400.501C223.51 399.394 223.891 398.46 224.654 397.697C225.417 396.934 226.352 396.552 227.458 396.552C228.565 396.552 229.499 396.934 230.262 397.697C231.025 398.46 231.407 399.394 231.407 400.501C231.407 401.607 231.025 402.542 230.262 403.305C229.499 404.068 228.565 404.449 227.458 404.449ZM227.458 416.542C223.016 416.542 219.232 414.979 216.106 411.853C212.98 408.727 211.417 404.943 211.417 400.501C211.417 396.058 212.98 392.274 216.106 389.148C219.232 386.022 223.016 384.459 227.458 384.459C230.753 384.459 233.724 385.351 236.371 387.136C239.018 388.922 240.95 391.238 242.167 394.084H271.696L278.113 400.501L267.871 410.619L262.379 406.486L256.58 410.742L250.873 406.917H242.167C240.95 409.722 239.018 412.028 236.371 413.834C233.724 415.639 230.753 416.542 227.458 416.542ZM227.458 413.334C230.617 413.334 233.313 412.384 235.544 410.483C237.776 408.583 239.204 406.325 239.829 403.709H251.891L256.482 406.812L262.441 402.536L267.643 406.455L273.597 400.501L270.388 397.292H239.829C239.204 394.676 237.776 392.418 235.544 390.518C233.313 388.618 230.617 387.667 227.458 387.667C223.929 387.667 220.908 388.924 218.395 391.437C215.882 393.95 214.625 396.971 214.625 400.501C214.625 404.03 215.882 407.051 218.395 409.564C220.908 412.077 223.929 413.334 227.458 413.334Z" fill="#59626D"/>
<path d="M287.6 532.512C285.211 532.512 283.333 531.755 281.968 530.24C280.603 528.725 279.92 526.667 279.92 524.064V509.28H282.672V524.064C282.672 525.941 283.088 527.371 283.92 528.352C284.773 529.333 286 529.824 287.6 529.824C289.2 529.824 290.416 529.333 291.248 528.352C292.101 527.371 292.528 525.941 292.528 524.064V509.28H295.28V524.064C295.28 526.667 294.597 528.725 293.232 530.24C291.867 531.755 289.989 532.512 287.6 532.512ZM306.468 532.384C304.996 532.384 303.726 532.128 302.66 531.616C301.593 531.104 300.75 530.421 300.132 529.568C299.534 528.693 299.193 527.723 299.108 526.656L301.924 526.464C302.094 527.509 302.553 528.331 303.3 528.928C304.068 529.525 305.124 529.824 306.468 529.824C307.726 529.824 308.697 529.643 309.38 529.28C310.084 528.917 310.436 528.352 310.436 527.584C310.436 527.093 310.318 526.688 310.084 526.368C309.849 526.048 309.412 525.781 308.772 525.568C308.132 525.333 307.193 525.109 305.956 524.896C304.313 524.597 303.022 524.235 302.084 523.808C301.166 523.36 300.516 522.805 300.132 522.144C299.748 521.483 299.556 520.693 299.556 519.776C299.556 518.795 299.801 517.92 300.292 517.152C300.782 516.384 301.508 515.776 302.468 515.328C303.428 514.88 304.601 514.656 305.988 514.656C307.396 514.656 308.569 514.912 309.508 515.424C310.468 515.915 311.225 516.576 311.78 517.408C312.334 518.219 312.697 519.115 312.868 520.096L310.052 520.288C309.924 519.691 309.678 519.168 309.316 518.72C308.974 518.251 308.516 517.888 307.94 517.632C307.385 517.355 306.724 517.216 305.956 517.216C304.718 517.216 303.801 517.461 303.204 517.952C302.606 518.443 302.308 519.051 302.308 519.776C302.308 520.352 302.446 520.811 302.724 521.152C303.001 521.493 303.449 521.771 304.068 521.984C304.686 522.176 305.508 522.357 306.532 522.528C308.281 522.805 309.636 523.168 310.596 523.616C311.556 524.043 312.228 524.576 312.612 525.216C312.996 525.856 313.188 526.645 313.188 527.584C313.188 528.587 312.889 529.451 312.292 530.176C311.716 530.88 310.916 531.424 309.892 531.808C308.889 532.192 307.748 532.384 306.468 532.384ZM324.983 532.384C323.383 532.384 321.996 532.021 320.823 531.296C319.671 530.571 318.775 529.547 318.135 528.224C317.516 526.88 317.207 525.312 317.207 523.52C317.207 521.728 317.516 520.171 318.135 518.848C318.775 517.525 319.66 516.501 320.791 515.776C321.943 515.029 323.298 514.656 324.855 514.656C326.327 514.656 327.628 515.008 328.759 515.712C329.89 516.395 330.775 517.397 331.415 518.72C332.055 520.043 332.375 521.653 332.375 523.552V524.352H320.023C320.13 526.165 320.61 527.531 321.463 528.448C322.338 529.365 323.511 529.824 324.983 529.824C326.092 529.824 326.999 529.568 327.703 529.056C328.428 528.523 328.93 527.829 329.207 526.976L332.087 527.2C331.639 528.715 330.786 529.963 329.527 530.944C328.29 531.904 326.775 532.384 324.983 532.384ZM320.023 521.984H329.431C329.303 520.341 328.823 519.136 327.991 518.368C327.159 517.6 326.114 517.216 324.855 517.216C323.554 517.216 322.476 517.621 321.623 518.432C320.791 519.221 320.258 520.405 320.023 521.984ZM340.939 532V515.04H343.179L343.435 519.328L343.179 519.264C343.392 517.813 343.851 516.747 344.555 516.064C345.28 515.381 346.24 515.04 347.435 515.04H350.923V517.472H347.467C346.635 517.472 345.931 517.643 345.355 517.984C344.8 518.304 344.373 518.784 344.075 519.424C343.776 520.043 343.627 520.821 343.627 521.76V532H340.939ZM336.523 532V529.632H349.003V532H336.523ZM336.523 517.408V515.04H342.411V517.408H336.523ZM362.11 532.384C360.638 532.384 359.369 532.128 358.302 531.616C357.235 531.104 356.393 530.421 355.774 529.568C355.177 528.693 354.835 527.723 354.75 526.656L357.566 526.464C357.737 527.509 358.195 528.331 358.942 528.928C359.71 529.525 360.766 529.824 362.11 529.824C363.369 529.824 364.339 529.643 365.022 529.28C365.726 528.917 366.078 528.352 366.078 527.584C366.078 527.093 365.961 526.688 365.726 526.368C365.491 526.048 365.054 525.781 364.414 525.568C363.774 525.333 362.835 525.109 361.598 524.896C359.955 524.597 358.665 524.235 357.726 523.808C356.809 523.36 356.158 522.805 355.774 522.144C355.39 521.483 355.198 520.693 355.198 519.776C355.198 518.795 355.443 517.92 355.934 517.152C356.425 516.384 357.15 515.776 358.11 515.328C359.07 514.88 360.243 514.656 361.63 514.656C363.038 514.656 364.211 514.912 365.15 515.424C366.11 515.915 366.867 516.576 367.422 517.408C367.977 518.219 368.339 519.115 368.51 520.096L365.694 520.288C365.566 519.691 365.321 519.168 364.958 518.72C364.617 518.251 364.158 517.888 363.582 517.632C363.027 517.355 362.366 517.216 361.598 517.216C360.361 517.216 359.443 517.461 358.846 517.952C358.249 518.443 357.95 519.051 357.95 519.776C357.95 520.352 358.089 520.811 358.366 521.152C358.643 521.493 359.091 521.771 359.71 521.984C360.329 522.176 361.15 522.357 362.174 522.528C363.923 522.805 365.278 523.168 366.238 523.616C367.198 524.043 367.87 524.576 368.254 525.216C368.638 525.856 368.83 526.645 368.83 527.584C368.83 528.587 368.531 529.451 367.934 530.176C367.358 530.88 366.558 531.424 365.534 531.808C364.531 532.192 363.39 532.384 362.11 532.384ZM286.224 598V577.968H279.28V575.28H295.92V577.968H288.976V598H286.224ZM306.436 598.384C304.836 598.384 303.449 598.021 302.276 597.296C301.124 596.571 300.228 595.547 299.588 594.224C298.969 592.88 298.66 591.312 298.66 589.52C298.66 587.728 298.969 586.171 299.588 584.848C300.228 583.525 301.113 582.501 302.244 581.776C303.396 581.029 304.75 580.656 306.308 580.656C307.78 580.656 309.081 581.008 310.212 581.712C311.342 582.395 312.228 583.397 312.868 584.72C313.508 586.043 313.828 587.653 313.828 589.552V590.352H301.476C301.582 592.165 302.062 593.531 302.916 594.448C303.79 595.365 304.964 595.824 306.436 595.824C307.545 595.824 308.452 595.568 309.156 595.056C309.881 594.523 310.382 593.829 310.66 592.976L313.54 593.2C313.092 594.715 312.238 595.963 310.98 596.944C309.742 597.904 308.228 598.384 306.436 598.384ZM301.476 587.984H310.884C310.756 586.341 310.276 585.136 309.444 584.368C308.612 583.6 307.566 583.216 306.308 583.216C305.006 583.216 303.929 583.621 303.076 584.432C302.244 585.221 301.71 586.405 301.476 587.984ZM317.783 598V581.04H320.247L320.343 585.36L320.023 585.072C320.236 584.069 320.62 583.248 321.175 582.608C321.751 581.947 322.434 581.456 323.223 581.136C324.012 580.816 324.844 580.656 325.719 580.656C327.02 580.656 328.098 580.944 328.951 581.52C329.826 582.096 330.487 582.875 330.935 583.856C331.383 584.816 331.607 585.893 331.607 587.088V598H328.919V587.856C328.919 586.277 328.61 585.083 327.991 584.272C327.372 583.44 326.423 583.024 325.143 583.024C324.268 583.024 323.479 583.216 322.775 583.6C322.071 583.963 321.506 584.507 321.079 585.232C320.674 585.936 320.471 586.811 320.471 587.856V598H317.783ZM341.003 598.384C339.936 598.384 338.976 598.192 338.123 597.808C337.269 597.424 336.597 596.891 336.107 596.208C335.616 595.504 335.371 594.693 335.371 593.776C335.371 592.325 335.797 591.205 336.651 590.416C337.525 589.605 338.891 589.019 340.747 588.656L346.443 587.504C346.443 586.053 346.112 584.976 345.451 584.272C344.811 583.568 343.883 583.216 342.667 583.216C341.493 583.216 340.576 583.483 339.915 584.016C339.253 584.528 338.795 585.275 338.539 586.256L335.691 586.032C336.011 584.432 336.768 583.141 337.963 582.16C339.179 581.157 340.747 580.656 342.667 580.656C344.715 580.656 346.304 581.275 347.435 582.512C348.565 583.728 349.131 585.413 349.131 587.568V594.608C349.131 594.992 349.216 595.259 349.387 595.408C349.557 595.557 349.813 595.632 350.155 595.632H351.243V598C351.115 598.021 350.912 598.032 350.635 598.032C350.357 598.053 350.091 598.064 349.835 598.064C349.109 598.064 348.491 597.947 347.979 597.712C347.488 597.477 347.115 597.104 346.859 596.592C346.603 596.059 346.464 595.376 346.443 594.544H346.955C346.805 595.269 346.443 595.931 345.867 596.528C345.312 597.104 344.608 597.563 343.755 597.904C342.901 598.224 341.984 598.384 341.003 598.384ZM341.259 596.016C342.411 596.016 343.371 595.824 344.139 595.44C344.907 595.035 345.483 594.48 345.867 593.776C346.251 593.051 346.443 592.219 346.443 591.28V589.808L341.259 590.832C340.107 591.045 339.307 591.376 338.859 591.824C338.411 592.251 338.187 592.816 338.187 593.52C338.187 594.309 338.453 594.928 338.987 595.376C339.541 595.803 340.299 596.016 341.259 596.016ZM354.878 598V581.04H357.342L357.438 585.36L357.118 585.072C357.331 584.069 357.715 583.248 358.27 582.608C358.846 581.947 359.529 581.456 360.318 581.136C361.107 580.816 361.939 580.656 362.814 580.656C364.115 580.656 365.193 580.944 366.046 581.52C366.921 582.096 367.582 582.875 368.03 583.856C368.478 584.816 368.702 585.893 368.702 587.088V598H366.014V587.856C366.014 586.277 365.705 585.083 365.086 584.272C364.467 583.44 363.518 583.024 362.238 583.024C361.363 583.024 360.574 583.216 359.87 583.6C359.166 583.963 358.601 584.507 358.174 585.232C357.769 585.936 357.566 586.811 357.566 587.856V598H354.878ZM382.834 598C381.191 598 379.964 597.616 379.154 596.848C378.343 596.08 377.938 594.907 377.938 593.328V577.072H380.626V593.328C380.626 594.117 380.807 594.704 381.17 595.088C381.532 595.451 382.087 595.632 382.834 595.632H387.378V598H382.834ZM372.338 583.408V581.04H387.378V583.408H372.338ZM399.205 598.384C397.733 598.384 396.464 598.128 395.397 597.616C394.33 597.104 393.488 596.421 392.869 595.568C392.272 594.693 391.93 593.723 391.845 592.656L394.661 592.464C394.832 593.509 395.29 594.331 396.037 594.928C396.805 595.525 397.861 595.824 399.205 595.824C400.464 595.824 401.434 595.643 402.117 595.28C402.821 594.917 403.173 594.352 403.173 593.584C403.173 593.093 403.056 592.688 402.821 592.368C402.586 592.048 402.149 591.781 401.509 591.568C400.869 591.333 399.93 591.109 398.693 590.896C397.05 590.597 395.76 590.235 394.821 589.808C393.904 589.36 393.253 588.805 392.869 588.144C392.485 587.483 392.293 586.693 392.293 585.776C392.293 584.795 392.538 583.92 393.029 583.152C393.52 582.384 394.245 581.776 395.205 581.328C396.165 580.88 397.338 580.656 398.725 580.656C400.133 580.656 401.306 580.912 402.245 581.424C403.205 581.915 403.962 582.576 404.517 583.408C405.072 584.219 405.434 585.115 405.605 586.096L402.789 586.288C402.661 585.691 402.416 585.168 402.053 584.72C401.712 584.251 401.253 583.888 400.677 583.632C400.122 583.355 399.461 583.216 398.693 583.216C397.456 583.216 396.538 583.461 395.941 583.952C395.344 584.443 395.045 585.051 395.045 585.776C395.045 586.352 395.184 586.811 395.461 587.152C395.738 587.493 396.186 587.771 396.805 587.984C397.424 588.176 398.245 588.357 399.269 588.528C401.018 588.805 402.373 589.168 403.333 589.616C404.293 590.043 404.965 590.576 405.349 591.216C405.733 591.856 405.925 592.645 405.925 593.584C405.925 594.587 405.626 595.451 405.029 596.176C404.453 596.88 403.653 597.424 402.629 597.808C401.626 598.192 400.485 598.384 399.205 598.384ZM280.88 664V641.28H287.792C289.371 641.28 290.747 641.557 291.92 642.112C293.093 642.667 294 643.467 294.64 644.512C295.28 645.536 295.6 646.773 295.6 648.224C295.6 649.675 295.28 650.923 294.64 651.968C294 652.992 293.093 653.781 291.92 654.336C290.747 654.891 289.371 655.168 287.792 655.168H283.632V664H280.88ZM283.632 652.48H287.472C289.264 652.48 290.587 652.117 291.44 651.392C292.293 650.645 292.72 649.589 292.72 648.224C292.72 646.837 292.293 645.781 291.44 645.056C290.587 644.331 289.264 643.968 287.472 643.968H283.632V652.48ZM304.964 664.384C303.278 664.384 301.934 663.819 300.932 662.688C299.929 661.536 299.428 659.957 299.428 657.952V647.04H302.116V657.216C302.116 658.859 302.404 660.075 302.98 660.864C303.577 661.632 304.484 662.016 305.7 662.016C307.022 662.016 308.068 661.589 308.836 660.736C309.604 659.861 309.988 658.667 309.988 657.152V647.04H312.676V664H310.116V659.808L310.532 660.032C310.19 661.419 309.54 662.496 308.58 663.264C307.62 664.011 306.414 664.384 304.964 664.384ZM325.751 664.384C324.578 664.384 323.532 664.128 322.615 663.616C321.698 663.083 320.994 662.357 320.503 661.44L320.407 664H317.975V641.28H320.663V649.408C321.09 648.704 321.751 648.075 322.647 647.52C323.543 646.944 324.578 646.656 325.751 646.656C327.244 646.656 328.535 647.019 329.623 647.744C330.711 648.469 331.543 649.493 332.119 650.816C332.716 652.139 333.015 653.707 333.015 655.52C333.015 657.333 332.716 658.901 332.119 660.224C331.543 661.547 330.711 662.571 329.623 663.296C328.535 664.021 327.244 664.384 325.751 664.384ZM325.591 661.824C327.02 661.824 328.14 661.259 328.951 660.128C329.783 658.997 330.199 657.461 330.199 655.52C330.199 653.557 329.783 652.021 328.951 650.912C328.14 649.781 327.042 649.216 325.655 649.216C324.61 649.216 323.714 649.472 322.967 649.984C322.22 650.475 321.644 651.189 321.239 652.128C320.855 653.067 320.663 654.197 320.663 655.52C320.663 656.8 320.855 657.92 321.239 658.88C321.644 659.819 322.21 660.544 322.935 661.056C323.682 661.568 324.567 661.824 325.591 661.824ZM342.379 664V645.824C342.379 645.141 342.187 644.608 341.803 644.224C341.419 643.84 340.885 643.648 340.203 643.648H336.203V641.28H340.331C341.888 641.28 343.061 641.685 343.851 642.496C344.661 643.285 345.067 644.459 345.067 646.016V664H342.379ZM335.563 664V661.632H350.923V664H335.563ZM361.566 664V647.04H364.254V664H361.566ZM354.75 664V661.632H370.11V664H354.75ZM355.07 649.408V647.04H364.254V649.408H355.07ZM361.31 644.384V641.248H364.126V644.384H361.31ZM380.658 664.384C379.186 664.384 377.916 664.128 376.85 663.616C375.783 663.104 374.94 662.421 374.322 661.568C373.724 660.693 373.383 659.723 373.298 658.656L376.114 658.464C376.284 659.509 376.743 660.331 377.49 660.928C378.258 661.525 379.314 661.824 380.658 661.824C381.916 661.824 382.887 661.643 383.57 661.28C384.274 660.917 384.626 660.352 384.626 659.584C384.626 659.093 384.508 658.688 384.274 658.368C384.039 658.048 383.602 657.781 382.962 657.568C382.322 657.333 381.383 657.109 380.146 656.896C378.503 656.597 377.212 656.235 376.274 655.808C375.356 655.36 374.706 654.805 374.322 654.144C373.938 653.483 373.746 652.693 373.746 651.776C373.746 650.795 373.991 649.92 374.482 649.152C374.972 648.384 375.698 647.776 376.658 647.328C377.618 646.88 378.791 646.656 380.178 646.656C381.586 646.656 382.759 646.912 383.698 647.424C384.658 647.915 385.415 648.576 385.97 649.408C386.524 650.219 386.887 651.115 387.058 652.096L384.242 652.288C384.114 651.691 383.868 651.168 383.506 650.72C383.164 650.251 382.706 649.888 382.13 649.632C381.575 649.355 380.914 649.216 380.146 649.216C378.908 649.216 377.991 649.461 377.394 649.952C376.796 650.443 376.498 651.051 376.498 651.776C376.498 652.352 376.636 652.811 376.914 653.152C377.191 653.493 377.639 653.771 378.258 653.984C378.876 654.176 379.698 654.357 380.722 654.528C382.471 654.805 383.826 655.168 384.786 655.616C385.746 656.043 386.418 656.576 386.802 657.216C387.186 657.856 387.378 658.645 387.378 659.584C387.378 660.587 387.079 661.451 386.482 662.176C385.906 662.88 385.106 663.424 384.082 663.808C383.079 664.192 381.938 664.384 380.658 664.384ZM392.485 664V641.28H395.173V650.784L394.853 650.72C395.066 649.781 395.429 649.013 395.941 648.416C396.453 647.819 397.082 647.381 397.829 647.104C398.576 646.805 399.386 646.656 400.261 646.656C401.477 646.656 402.501 646.933 403.333 647.488C404.186 648.021 404.826 648.779 405.253 649.76C405.701 650.72 405.925 651.829 405.925 653.088V664H403.237V653.856C403.237 652.213 402.938 650.997 402.341 650.208C401.765 649.419 400.88 649.024 399.685 649.024C398.32 649.024 397.221 649.44 396.389 650.272C395.578 651.104 395.173 652.309 395.173 653.888V664H392.485ZM417.209 664V647.04H419.897V664H417.209ZM410.393 664V661.632H425.753V664H410.393ZM410.713 649.408V647.04H419.897V649.408H410.713ZM416.953 644.384V641.248H419.769V644.384H416.953ZM429.068 664V647.04H431.532L431.628 651.36L431.308 651.072C431.521 650.069 431.905 649.248 432.46 648.608C433.036 647.947 433.719 647.456 434.508 647.136C435.297 646.816 436.129 646.656 437.004 646.656C438.305 646.656 439.383 646.944 440.236 647.52C441.111 648.096 441.772 648.875 442.22 649.856C442.668 650.816 442.892 651.893 442.892 653.088V664H440.204V653.856C440.204 652.277 439.895 651.083 439.276 650.272C438.657 649.44 437.708 649.024 436.428 649.024C435.553 649.024 434.764 649.216 434.06 649.6C433.356 649.963 432.791 650.507 432.364 651.232C431.959 651.936 431.756 652.811 431.756 653.856V664H429.068ZM454.432 669.184C453.216 669.184 452.117 668.981 451.136 668.576C450.154 668.171 449.333 667.595 448.672 666.848C448.01 666.101 447.562 665.237 447.328 664.256L450.144 664.064C450.4 664.853 450.848 665.472 451.488 665.92C452.149 666.389 453.13 666.624 454.432 666.624C455.968 666.624 457.141 666.315 457.952 665.696C458.784 665.077 459.2 664.149 459.2 662.912V660.16C458.794 661.056 458.144 661.771 457.248 662.304C456.352 662.837 455.349 663.104 454.24 663.104C452.81 663.104 451.53 662.752 450.4 662.048C449.29 661.344 448.416 660.373 447.776 659.136C447.157 657.899 446.848 656.48 446.848 654.88C446.848 653.259 447.157 651.84 447.776 650.624C448.394 649.387 449.248 648.416 450.336 647.712C451.445 647.008 452.704 646.656 454.112 646.656C455.306 646.656 456.373 646.933 457.312 647.488C458.272 648.043 458.944 648.789 459.328 649.728V647.04H461.888V662.848C461.888 664.171 461.589 665.301 460.992 666.24C460.394 667.2 459.541 667.925 458.432 668.416C457.322 668.928 455.989 669.184 454.432 669.184ZM454.368 660.544C455.818 660.544 456.981 660.043 457.856 659.04C458.73 658.016 459.178 656.629 459.2 654.88C459.221 653.707 459.029 652.704 458.624 651.872C458.24 651.019 457.674 650.368 456.928 649.92C456.202 649.451 455.349 649.216 454.368 649.216C452.874 649.216 451.712 649.728 450.88 650.752C450.069 651.755 449.664 653.131 449.664 654.88C449.664 656.629 450.08 658.016 450.912 659.04C451.765 660.043 452.917 660.544 454.368 660.544ZM486.023 664L482.663 647.04H485.607L487.815 661.184L490.311 649.408H492.935L495.431 661.184L497.639 647.04H500.583L497.255 664H493.863L491.623 653.312L489.383 664H486.023ZM510.17 664.384C508.613 664.384 507.247 664.021 506.074 663.296C504.922 662.571 504.026 661.547 503.386 660.224C502.746 658.88 502.426 657.312 502.426 655.52C502.426 653.707 502.746 652.139 503.386 650.816C504.026 649.493 504.922 648.469 506.074 647.744C507.247 647.019 508.613 646.656 510.17 646.656C511.727 646.656 513.082 647.019 514.234 647.744C515.407 648.469 516.314 649.493 516.954 650.816C517.594 652.139 517.914 653.707 517.914 655.52C517.914 657.312 517.594 658.88 516.954 660.224C516.314 661.547 515.407 662.571 514.234 663.296C513.082 664.021 511.727 664.384 510.17 664.384ZM510.17 661.824C511.727 661.824 512.933 661.269 513.786 660.16C514.661 659.029 515.098 657.483 515.098 655.52C515.098 653.557 514.661 652.021 513.786 650.912C512.933 649.781 511.727 649.216 510.17 649.216C508.613 649.216 507.397 649.781 506.522 650.912C505.669 652.021 505.242 653.557 505.242 655.52C505.242 657.483 505.669 659.029 506.522 660.16C507.397 661.269 508.613 661.824 510.17 661.824ZM526.413 664V647.04H528.653L528.909 651.328L528.653 651.264C528.867 649.813 529.325 648.747 530.029 648.064C530.755 647.381 531.715 647.04 532.909 647.04H536.397V649.472H532.941C532.109 649.472 531.405 649.643 530.829 649.984C530.275 650.304 529.848 650.784 529.549 651.424C529.251 652.043 529.101 652.821 529.101 653.76V664H526.413ZM521.997 664V661.632H534.477V664H521.997ZM521.997 649.408V647.04H527.885V649.408H521.997ZM540.545 664V641.28H543.233V656.16L551.489 647.04H555.073L548.385 654.24L555.393 664H552.129L546.561 656.064L543.233 659.584V664H540.545ZM562.996 664V645.952C562.996 644.437 563.38 643.285 564.148 642.496C564.938 641.685 566.132 641.28 567.732 641.28H573.172V643.648H567.732C567.071 643.648 566.559 643.861 566.196 644.288C565.855 644.693 565.684 645.248 565.684 645.952V664H562.996ZM558.452 649.408V647.04H572.852V649.408H558.452ZM583.496 664V645.824C583.496 645.141 583.304 644.608 582.92 644.224C582.536 643.84 582.003 643.648 581.32 643.648H577.32V641.28H581.448C583.005 641.28 584.179 641.685 584.968 642.496C585.779 643.285 586.184 644.459 586.184 646.016V664H583.496ZM576.68 664V661.632H592.04V664H576.68ZM602.907 664.384C601.35 664.384 599.985 664.021 598.811 663.296C597.659 662.571 596.763 661.547 596.123 660.224C595.483 658.88 595.163 657.312 595.163 655.52C595.163 653.707 595.483 652.139 596.123 650.816C596.763 649.493 597.659 648.469 598.811 647.744C599.985 647.019 601.35 646.656 602.907 646.656C604.465 646.656 605.819 647.019 606.971 647.744C608.145 648.469 609.051 649.493 609.691 650.816C610.331 652.139 610.651 653.707 610.651 655.52C610.651 657.312 610.331 658.88 609.691 660.224C609.051 661.547 608.145 662.571 606.971 663.296C605.819 664.021 604.465 664.384 602.907 664.384ZM602.907 661.824C604.465 661.824 605.67 661.269 606.523 660.16C607.398 659.029 607.835 657.483 607.835 655.52C607.835 653.557 607.398 652.021 606.523 650.912C605.67 649.781 604.465 649.216 602.907 649.216C601.35 649.216 600.134 649.781 599.259 650.912C598.406 652.021 597.979 653.557 597.979 655.52C597.979 657.483 598.406 659.029 599.259 660.16C600.134 661.269 601.35 661.824 602.907 661.824ZM615.855 664L612.495 647.04H615.439L617.647 661.184L620.143 649.408H622.767L625.263 661.184L627.471 647.04H630.415L627.087 664H623.695L621.455 653.312L619.215 664H615.855ZM640.322 664.384C638.85 664.384 637.581 664.128 636.514 663.616C635.448 663.104 634.605 662.421 633.986 661.568C633.389 660.693 633.048 659.723 632.962 658.656L635.778 658.464C635.949 659.509 636.408 660.331 637.154 660.928C637.922 661.525 638.978 661.824 640.322 661.824C641.581 661.824 642.552 661.643 643.234 661.28C643.938 660.917 644.29 660.352 644.29 659.584C644.29 659.093 644.173 658.688 643.938 658.368C643.704 658.048 643.266 657.781 642.626 657.568C641.986 657.333 641.048 657.109 639.81 656.896C638.168 656.597 636.877 656.235 635.938 655.808C635.021 655.36 634.37 654.805 633.986 654.144C633.602 653.483 633.41 652.693 633.41 651.776C633.41 650.795 633.656 649.92 634.146 649.152C634.637 648.384 635.362 647.776 636.322 647.328C637.282 646.88 638.456 646.656 639.842 646.656C641.25 646.656 642.424 646.912 643.362 647.424C644.322 647.915 645.08 648.576 645.634 649.408C646.189 650.219 646.552 651.115 646.722 652.096L643.906 652.288C643.778 651.691 643.533 651.168 643.17 650.72C642.829 650.251 642.37 649.888 641.794 649.632C641.24 649.355 640.578 649.216 639.81 649.216C638.573 649.216 637.656 649.461 637.058 649.952C636.461 650.443 636.162 651.051 636.162 651.776C636.162 652.352 636.301 652.811 636.578 653.152C636.856 653.493 637.304 653.771 637.922 653.984C638.541 654.176 639.362 654.357 640.386 654.528C642.136 654.805 643.49 655.168 644.45 655.616C645.41 656.043 646.082 656.576 646.466 657.216C646.85 657.856 647.042 658.645 647.042 659.584C647.042 660.587 646.744 661.451 646.146 662.176C645.57 662.88 644.77 663.424 643.746 663.808C642.744 664.192 641.602 664.384 640.322 664.384ZM278.832 730L285.744 707.28H289.456L296.368 730H293.424L287.6 709.776L281.776 730H278.832ZM282.32 723.536L283.28 720.848H291.92L292.88 723.536H282.32ZM305.092 730.384C303.598 730.384 302.308 730.021 301.22 729.296C300.132 728.571 299.289 727.547 298.692 726.224C298.116 724.901 297.828 723.333 297.828 721.52C297.828 719.707 298.116 718.139 298.692 716.816C299.289 715.493 300.132 714.469 301.22 713.744C302.308 713.019 303.598 712.656 305.092 712.656C306.286 712.656 307.332 712.944 308.228 713.52C309.124 714.075 309.774 714.704 310.18 715.408V707.28H312.868V730H310.436L310.34 727.44C309.87 728.357 309.177 729.083 308.26 729.616C307.342 730.128 306.286 730.384 305.092 730.384ZM305.252 727.824C306.276 727.824 307.15 727.568 307.876 727.056C308.622 726.544 309.188 725.819 309.572 724.88C309.977 723.92 310.18 722.8 310.18 721.52C310.18 720.197 309.977 719.067 309.572 718.128C309.188 717.189 308.622 716.475 307.876 715.984C307.129 715.472 306.233 715.216 305.188 715.216C303.801 715.216 302.692 715.781 301.86 716.912C301.049 718.021 300.644 719.557 300.644 721.52C300.644 723.461 301.049 724.997 301.86 726.128C302.692 727.259 303.822 727.824 305.252 727.824ZM322.999 730L316.695 713.04H319.639L324.695 727.248L329.751 713.04H332.695L326.391 730H322.999ZM341.003 730.384C339.936 730.384 338.976 730.192 338.123 729.808C337.269 729.424 336.597 728.891 336.107 728.208C335.616 727.504 335.371 726.693 335.371 725.776C335.371 724.325 335.797 723.205 336.651 722.416C337.525 721.605 338.891 721.019 340.747 720.656L346.443 719.504C346.443 718.053 346.112 716.976 345.451 716.272C344.811 715.568 343.883 715.216 342.667 715.216C341.493 715.216 340.576 715.483 339.915 716.016C339.253 716.528 338.795 717.275 338.539 718.256L335.691 718.032C336.011 716.432 336.768 715.141 337.963 714.16C339.179 713.157 340.747 712.656 342.667 712.656C344.715 712.656 346.304 713.275 347.435 714.512C348.565 715.728 349.131 717.413 349.131 719.568V726.608C349.131 726.992 349.216 727.259 349.387 727.408C349.557 727.557 349.813 727.632 350.155 727.632H351.243V730C351.115 730.021 350.912 730.032 350.635 730.032C350.357 730.053 350.091 730.064 349.835 730.064C349.109 730.064 348.491 729.947 347.979 729.712C347.488 729.477 347.115 729.104 346.859 728.592C346.603 728.059 346.464 727.376 346.443 726.544H346.955C346.805 727.269 346.443 727.931 345.867 728.528C345.312 729.104 344.608 729.563 343.755 729.904C342.901 730.224 341.984 730.384 341.003 730.384ZM341.259 728.016C342.411 728.016 343.371 727.824 344.139 727.44C344.907 727.035 345.483 726.48 345.867 725.776C346.251 725.051 346.443 724.219 346.443 723.28V721.808L341.259 722.832C340.107 723.045 339.307 723.376 338.859 723.824C338.411 724.251 338.187 724.816 338.187 725.52C338.187 726.309 338.453 726.928 338.987 727.376C339.541 727.803 340.299 728.016 341.259 728.016ZM354.878 730V713.04H357.342L357.438 717.36L357.118 717.072C357.331 716.069 357.715 715.248 358.27 714.608C358.846 713.947 359.529 713.456 360.318 713.136C361.107 712.816 361.939 712.656 362.814 712.656C364.115 712.656 365.193 712.944 366.046 713.52C366.921 714.096 367.582 714.875 368.03 715.856C368.478 716.816 368.702 717.893 368.702 719.088V730H366.014V719.856C366.014 718.277 365.705 717.083 365.086 716.272C364.467 715.44 363.518 715.024 362.238 715.024C361.363 715.024 360.574 715.216 359.87 715.6C359.166 715.963 358.601 716.507 358.174 717.232C357.769 717.936 357.566 718.811 357.566 719.856V730H354.878ZM380.786 730.384C379.207 730.384 377.831 730.021 376.658 729.296C375.484 728.571 374.578 727.547 373.938 726.224C373.298 724.88 372.978 723.312 372.978 721.52C372.978 719.728 373.298 718.171 373.938 716.848C374.578 715.525 375.484 714.501 376.658 713.776C377.831 713.029 379.207 712.656 380.786 712.656C382.044 712.656 383.164 712.891 384.146 713.36C385.127 713.808 385.938 714.469 386.578 715.344C387.218 716.219 387.655 717.285 387.89 718.544L385.074 718.736C384.818 717.605 384.306 716.741 383.538 716.144C382.791 715.525 381.874 715.216 380.786 715.216C379.228 715.216 378.002 715.781 377.106 716.912C376.231 718.021 375.794 719.557 375.794 721.52C375.794 723.483 376.231 725.029 377.106 726.16C378.002 727.269 379.228 727.824 380.786 727.824C381.874 727.824 382.812 727.504 383.602 726.864C384.412 726.224 384.946 725.264 385.202 723.984L388.018 724.176C387.783 725.435 387.335 726.533 386.674 727.472C386.012 728.389 385.18 729.104 384.178 729.616C383.175 730.128 382.044 730.384 380.786 730.384ZM399.173 730.384C397.573 730.384 396.186 730.021 395.013 729.296C393.861 728.571 392.965 727.547 392.325 726.224C391.706 724.88 391.397 723.312 391.397 721.52C391.397 719.728 391.706 718.171 392.325 716.848C392.965 715.525 393.85 714.501 394.981 713.776C396.133 713.029 397.488 712.656 399.045 712.656C400.517 712.656 401.818 713.008 402.949 713.712C404.08 714.395 404.965 715.397 405.605 716.72C406.245 718.043 406.565 719.653 406.565 721.552V722.352H394.213C394.32 724.165 394.8 725.531 395.653 726.448C396.528 727.365 397.701 727.824 399.173 727.824C400.282 727.824 401.189 727.568 401.893 727.056C402.618 726.523 403.12 725.829 403.397 724.976L406.277 725.2C405.829 726.715 404.976 727.963 403.717 728.944C402.48 729.904 400.965 730.384 399.173 730.384ZM394.213 719.984H403.621C403.493 718.341 403.013 717.136 402.181 716.368C401.349 715.6 400.304 715.216 399.045 715.216C397.744 715.216 396.666 715.621 395.813 716.432C394.981 717.221 394.448 718.405 394.213 719.984ZM416.377 730.384C414.883 730.384 413.593 730.021 412.505 729.296C411.417 728.571 410.574 727.547 409.977 726.224C409.401 724.901 409.113 723.333 409.113 721.52C409.113 719.707 409.401 718.139 409.977 716.816C410.574 715.493 411.417 714.469 412.505 713.744C413.593 713.019 414.883 712.656 416.377 712.656C417.571 712.656 418.617 712.944 419.513 713.52C420.409 714.075 421.059 714.704 421.465 715.408V707.28H424.153V730H421.721L421.625 727.44C421.155 728.357 420.462 729.083 419.545 729.616C418.627 730.128 417.571 730.384 416.377 730.384ZM416.537 727.824C417.561 727.824 418.435 727.568 419.161 727.056C419.907 726.544 420.473 725.819 420.857 724.88C421.262 723.92 421.465 722.8 421.465 721.52C421.465 720.197 421.262 719.067 420.857 718.128C420.473 717.189 419.907 716.475 419.161 715.984C418.414 715.472 417.518 715.216 416.473 715.216C415.086 715.216 413.977 715.781 413.145 716.912C412.334 718.021 411.929 719.557 411.929 721.52C411.929 723.461 412.334 724.997 413.145 726.128C413.977 727.259 415.107 727.824 416.537 727.824ZM445.76 730L452.672 707.28H456.384L463.296 730H460.352L454.528 709.776L448.704 730H445.76ZM449.248 723.536L450.208 720.848H458.848L459.808 723.536H449.248ZM473.139 730.512C471.326 730.512 469.79 730.032 468.531 729.072C467.272 728.112 466.312 726.747 465.651 724.976C465.011 723.205 464.691 721.104 464.691 718.672C464.691 716.219 465.011 714.107 465.651 712.336C466.312 710.565 467.272 709.2 468.531 708.24C469.79 707.259 471.326 706.768 473.139 706.768C475.144 706.768 476.851 707.429 478.259 708.752C479.667 710.053 480.606 711.877 481.075 714.224L478.131 714.416C477.768 712.773 477.139 711.536 476.243 710.704C475.368 709.872 474.334 709.456 473.139 709.456C471.923 709.456 470.899 709.819 470.067 710.544C469.256 711.248 468.638 712.293 468.211 713.68C467.784 715.045 467.571 716.709 467.571 718.672C467.571 720.613 467.784 722.267 468.211 723.632C468.638 724.997 469.256 726.043 470.067 726.768C470.899 727.472 471.923 727.824 473.139 727.824C474.462 727.824 475.582 727.365 476.499 726.448C477.416 725.531 478.035 724.165 478.355 722.352L481.267 722.512C480.862 725.008 479.944 726.971 478.515 728.4C477.086 729.808 475.294 730.512 473.139 730.512ZM485.223 730V707.28H487.975V728.72L486.599 727.312H499.303V730H485.223Z" fill="black"/>
<g filter="url(#filter3_d_47_3462)">
<path d="M207 509C207 500.163 214.163 493 223 493H244C252.837 493 260 500.163 260 509V530C260 538.837 252.837 546 244 546H223C214.163 546 207 538.837 207 530V509Z" fill="#FA5A28"/>
<path d="M223 493.5H244C252.56 493.5 259.5 500.44 259.5 509V530C259.5 538.56 252.56 545.5 244 545.5H223C214.44 545.5 207.5 538.56 207.5 530V509C207.5 500.44 214.44 493.5 223 493.5Z" stroke="#E8E8E8"/>
</g>
<g filter="url(#filter4_d_47_3462)">
<path d="M207 641C207 632.163 214.163 625 223 625H244C252.837 625 260 632.163 260 641V662C260 670.837 252.837 678 244 678H223C214.163 678 207 670.837 207 662V641Z" fill="#FA5A28"/>
<path d="M223 625.5H244C252.56 625.5 259.5 632.44 259.5 641V662C259.5 670.56 252.56 677.5 244 677.5H223C214.44 677.5 207.5 670.56 207.5 662V641C207.5 632.44 214.44 625.5 223 625.5Z" stroke="#E8E8E8"/>
</g>
<g filter="url(#filter5_d_47_3462)">
<path d="M207 575C207 566.163 214.163 559 223 559H244C252.837 559 260 566.163 260 575V596C260 604.837 252.837 612 244 612H223C214.163 612 207 604.837 207 596V575Z" fill="#FA5A28"/>
<path d="M223 559.5H244C252.56 559.5 259.5 566.44 259.5 575V596C259.5 604.56 252.56 611.5 244 611.5H223C214.44 611.5 207.5 604.56 207.5 596V575C207.5 566.44 214.44 559.5 223 559.5Z" stroke="#E8E8E8"/>
</g>
<g filter="url(#filter6_d_47_3462)">
<path d="M207 707C207 698.163 214.163 691 223 691H244C252.837 691 260 698.163 260 707V728C260 736.837 252.837 744 244 744H223C214.163 744 207 736.837 207 728V707Z" fill="#FA5A28"/>
<path d="M223 691.5H244C252.56 691.5 259.5 698.44 259.5 707V728C259.5 736.56 252.56 743.5 244 743.5H223C214.44 743.5 207.5 736.56 207.5 728V707C207.5 698.44 214.44 691.5 223 691.5Z" stroke="#E8E8E8"/>
</g>
<path d="M226.804 528V515.418H222.106V512.232H224.212C224.932 512.232 225.517 512.124 225.967 511.908C226.435 511.674 226.768 511.314 226.966 510.828C227.182 510.324 227.29 509.658 227.29 508.83H230.638V528H226.804ZM221.296 528V524.544H234.904V528H221.296ZM239.186 524.895L246.152 511.746L248.312 511.935L241.346 525.084L239.186 524.895ZM243.749 528.432C242.309 528.432 241.067 528.036 240.023 527.244C238.997 526.434 238.205 525.282 237.647 523.788C237.107 522.294 236.837 520.512 236.837 518.442C236.837 516.372 237.107 514.59 237.647 513.096C238.205 511.584 238.997 510.423 240.023 509.613C241.067 508.803 242.309 508.398 243.749 508.398C245.189 508.398 246.422 508.803 247.448 509.613C248.492 510.423 249.284 511.584 249.824 513.096C250.382 514.59 250.661 516.372 250.661 518.442C250.661 520.512 250.382 522.294 249.824 523.788C249.284 525.282 248.492 526.434 247.448 527.244C246.422 528.036 245.189 528.432 243.749 528.432ZM243.749 525.03C244.379 525.03 244.91 524.787 245.342 524.301C245.774 523.815 246.107 523.086 246.341 522.114C246.593 521.124 246.719 519.9 246.719 518.442C246.719 516.966 246.593 515.733 246.341 514.743C246.107 513.753 245.774 513.015 245.342 512.529C244.91 512.043 244.379 511.8 243.749 511.8C243.137 511.8 242.606 512.043 242.156 512.529C241.724 513.015 241.382 513.753 241.13 514.743C240.896 515.733 240.779 516.966 240.779 518.442C240.779 519.9 240.896 521.124 241.13 522.114C241.382 523.086 241.724 523.815 242.156 524.301C242.606 524.787 243.137 525.03 243.749 525.03Z" fill="white"/>
<path d="M229.529 660.5L221.454 652.425L223.473 650.407L229.529 656.463L242.527 643.465L244.546 645.484L229.529 660.5Z" fill="white"/>
<path d="M229.529 726.5L221.454 718.425L223.473 716.407L229.529 722.463L242.527 709.465L244.546 711.484L229.529 726.5Z" fill="white"/>
<path d="M226.804 596V583.418H222.106V580.232H224.212C224.932 580.232 225.517 580.124 225.967 579.908C226.435 579.674 226.768 579.314 226.966 578.828C227.182 578.324 227.29 577.658 227.29 576.83H230.638V596H226.804ZM221.296 596V592.544H234.904V596H221.296ZM239.186 592.895L246.152 579.746L248.312 579.935L241.346 593.084L239.186 592.895ZM243.749 596.432C242.309 596.432 241.067 596.036 240.023 595.244C238.997 594.434 238.205 593.282 237.647 591.788C237.107 590.294 236.837 588.512 236.837 586.442C236.837 584.372 237.107 582.59 237.647 581.096C238.205 579.584 238.997 578.423 240.023 577.613C241.067 576.803 242.309 576.398 243.749 576.398C245.189 576.398 246.422 576.803 247.448 577.613C248.492 578.423 249.284 579.584 249.824 581.096C250.382 582.59 250.661 584.372 250.661 586.442C250.661 588.512 250.382 590.294 249.824 591.788C249.284 593.282 248.492 594.434 247.448 595.244C246.422 596.036 245.189 596.432 243.749 596.432ZM243.749 593.03C244.379 593.03 244.91 592.787 245.342 592.301C245.774 591.815 246.107 591.086 246.341 590.114C246.593 589.124 246.719 587.9 246.719 586.442C246.719 584.966 246.593 583.733 246.341 582.743C246.107 581.753 245.774 581.015 245.342 580.529C244.91 580.043 244.379 579.8 243.749 579.8C243.137 579.8 242.606 580.043 242.156 580.529C241.724 581.015 241.382 581.753 241.13 582.743C240.896 583.733 240.779 584.966 240.779 586.442C240.779 587.9 240.896 589.124 241.13 590.114C241.382 591.086 241.724 591.815 242.156 592.301C242.606 592.787 243.137 593.03 243.749 593.03Z" fill="white"/>
<rect x="1216" y="530" width="161" height="67" rx="15" fill="#FA5A28"/>
<path d="M1058.47 580.24V548.2H1061.13V580.24H1058.47ZM1060.2 577.576C1058.4 577.576 1056.8 577.204 1055.41 576.46C1054.02 575.716 1052.9 574.696 1052.06 573.4C1051.22 572.08 1050.73 570.556 1050.58 568.828L1053.82 568.612C1053.99 569.884 1054.35 570.964 1054.9 571.852C1055.48 572.74 1056.21 573.412 1057.1 573.868C1058.01 574.324 1059.07 574.552 1060.27 574.552C1061.47 574.552 1062.48 574.408 1063.29 574.12C1064.11 573.808 1064.72 573.364 1065.13 572.788C1065.56 572.188 1065.78 571.48 1065.78 570.664C1065.78 569.848 1065.6 569.164 1065.24 568.612C1064.88 568.036 1064.18 567.52 1063.15 567.064C1062.14 566.584 1060.63 566.08 1058.61 565.552C1056.84 565.072 1055.4 564.508 1054.29 563.86C1053.21 563.212 1052.42 562.444 1051.92 561.556C1051.44 560.668 1051.2 559.648 1051.2 558.496C1051.2 557.056 1051.53 555.808 1052.2 554.752C1052.9 553.696 1053.88 552.88 1055.16 552.304C1056.43 551.728 1057.94 551.44 1059.69 551.44C1061.44 551.44 1062.94 551.776 1064.19 552.448C1065.44 553.12 1066.42 554.056 1067.14 555.256C1067.89 556.432 1068.36 557.8 1068.55 559.36L1065.31 559.576C1065.16 558.544 1064.86 557.644 1064.41 556.876C1063.95 556.108 1063.33 555.52 1062.54 555.112C1061.74 554.68 1060.77 554.464 1059.62 554.464C1058.04 554.464 1056.78 554.812 1055.84 555.508C1054.9 556.18 1054.44 557.128 1054.44 558.352C1054.44 559.144 1054.6 559.804 1054.94 560.332C1055.3 560.836 1055.92 561.292 1056.81 561.7C1057.7 562.084 1058.95 562.504 1060.56 562.96C1062.64 563.536 1064.3 564.16 1065.52 564.832C1066.77 565.48 1067.66 566.272 1068.19 567.208C1068.74 568.144 1069.02 569.32 1069.02 570.736C1069.02 572.08 1068.64 573.268 1067.9 574.3C1067.16 575.332 1066.12 576.136 1064.8 576.712C1063.48 577.288 1061.95 577.576 1060.2 577.576ZM1097.14 582.4V579.736H1099.34C1100.01 579.736 1100.5 579.628 1100.81 579.412C1101.15 579.22 1101.4 578.896 1101.57 578.44L1102.25 576.64H1101.21L1094.12 557.92H1097.43L1103.22 573.832L1108.66 557.92H1111.97L1104.23 579.412C1103.87 580.444 1103.33 581.2 1102.61 581.68C1101.89 582.16 1100.9 582.4 1099.62 582.4H1097.14ZM1122.04 577.432C1120.84 577.432 1119.76 577.216 1118.8 576.784C1117.84 576.352 1117.08 575.752 1116.53 574.984C1115.98 574.192 1115.7 573.28 1115.7 572.248C1115.7 570.616 1116.18 569.356 1117.14 568.468C1118.13 567.556 1119.66 566.896 1121.75 566.488L1128.16 565.192C1128.16 563.56 1127.79 562.348 1127.04 561.556C1126.32 560.764 1125.28 560.368 1123.91 560.368C1122.59 560.368 1121.56 560.668 1120.81 561.268C1120.07 561.844 1119.55 562.684 1119.27 563.788L1116.06 563.536C1116.42 561.736 1117.27 560.284 1118.62 559.18C1119.99 558.052 1121.75 557.488 1123.91 557.488C1126.21 557.488 1128 558.184 1129.27 559.576C1130.55 560.944 1131.18 562.84 1131.18 565.264V573.184C1131.18 573.616 1131.28 573.916 1131.47 574.084C1131.66 574.252 1131.95 574.336 1132.33 574.336H1133.56V577C1133.41 577.024 1133.19 577.036 1132.87 577.036C1132.56 577.06 1132.26 577.072 1131.97 577.072C1131.16 577.072 1130.46 576.94 1129.89 576.676C1129.33 576.412 1128.91 575.992 1128.63 575.416C1128.34 574.816 1128.18 574.048 1128.16 573.112H1128.73C1128.57 573.928 1128.16 574.672 1127.51 575.344C1126.89 575.992 1126.09 576.508 1125.13 576.892C1124.17 577.252 1123.14 577.432 1122.04 577.432ZM1122.33 574.768C1123.62 574.768 1124.7 574.552 1125.57 574.12C1126.43 573.664 1127.08 573.04 1127.51 572.248C1127.94 571.432 1128.16 570.496 1128.16 569.44V567.784L1122.33 568.936C1121.03 569.176 1120.13 569.548 1119.63 570.052C1119.12 570.532 1118.87 571.168 1118.87 571.96C1118.87 572.848 1119.17 573.544 1119.77 574.048C1120.39 574.528 1121.25 574.768 1122.33 574.768ZM1143.55 577V557.92H1146.07L1146.36 562.744L1146.07 562.672C1146.31 561.04 1146.83 559.84 1147.62 559.072C1148.44 558.304 1149.52 557.92 1150.86 557.92H1154.78V560.656H1150.9C1149.96 560.656 1149.17 560.848 1148.52 561.232C1147.9 561.592 1147.42 562.132 1147.08 562.852C1146.74 563.548 1146.58 564.424 1146.58 565.48V577H1143.55ZM1138.58 577V574.336H1152.62V577H1138.58ZM1138.58 560.584V557.92H1145.21V560.584H1138.58ZM1159.95 577V557.92H1162.73L1162.83 562.78L1162.47 562.456C1162.71 561.328 1163.15 560.404 1163.77 559.684C1164.42 558.94 1165.19 558.388 1166.07 558.028C1166.96 557.668 1167.9 557.488 1168.88 557.488C1170.35 557.488 1171.56 557.812 1172.52 558.46C1173.5 559.108 1174.25 559.984 1174.75 561.088C1175.25 562.168 1175.51 563.38 1175.51 564.724V577H1172.48V565.588C1172.48 563.812 1172.13 562.468 1171.44 561.556C1170.74 560.62 1169.67 560.152 1168.23 560.152C1167.25 560.152 1166.36 560.368 1165.57 560.8C1164.78 561.208 1164.14 561.82 1163.66 562.636C1163.21 563.428 1162.98 564.412 1162.98 565.588V577H1159.95Z" fill="black"/>
<path d="M1421.88 582.4V557.92H1424.69L1424.76 562.24L1424.33 562.024C1424.81 560.536 1425.6 559.408 1426.7 558.64C1427.83 557.872 1429.13 557.488 1430.59 557.488C1432.49 557.488 1434.04 557.956 1435.24 558.892C1436.46 559.828 1437.36 561.052 1437.94 562.564C1438.51 564.076 1438.8 565.708 1438.8 567.46C1438.8 569.212 1438.51 570.844 1437.94 572.356C1437.36 573.868 1436.46 575.092 1435.24 576.028C1434.04 576.964 1432.49 577.432 1430.59 577.432C1429.61 577.432 1428.68 577.264 1427.82 576.928C1426.98 576.592 1426.26 576.124 1425.66 575.524C1425.08 574.924 1424.69 574.216 1424.47 573.4L1424.9 572.896V582.4H1421.88ZM1430.3 574.552C1431.96 574.552 1433.26 573.928 1434.19 572.68C1435.15 571.432 1435.63 569.692 1435.63 567.46C1435.63 565.228 1435.15 563.488 1434.19 562.24C1433.26 560.992 1431.96 560.368 1430.3 560.368C1429.2 560.368 1428.24 560.632 1427.42 561.16C1426.63 561.688 1426.01 562.48 1425.55 563.536C1425.12 564.592 1424.9 565.9 1424.9 567.46C1424.9 569.02 1425.12 570.328 1425.55 571.384C1425.98 572.44 1426.61 573.232 1427.42 573.76C1428.24 574.288 1429.2 574.552 1430.3 574.552ZM1448.79 577V557.92H1451.31L1451.6 562.744L1451.31 562.672C1451.55 561.04 1452.07 559.84 1452.86 559.072C1453.68 558.304 1454.76 557.92 1456.1 557.92H1460.03V560.656H1456.14C1455.2 560.656 1454.41 560.848 1453.76 561.232C1453.14 561.592 1452.66 562.132 1452.32 562.852C1451.99 563.548 1451.82 564.424 1451.82 565.48V577H1448.79ZM1443.83 577V574.336H1457.87V577H1443.83ZM1443.83 560.584V557.92H1450.45V560.584H1443.83ZM1472.97 577.432C1471.22 577.432 1469.68 577.024 1468.36 576.208C1467.07 575.392 1466.06 574.24 1465.34 572.752C1464.62 571.24 1464.26 569.476 1464.26 567.46C1464.26 565.42 1464.62 563.656 1465.34 562.168C1466.06 560.68 1467.07 559.528 1468.36 558.712C1469.68 557.896 1471.22 557.488 1472.97 557.488C1474.72 557.488 1476.25 557.896 1477.54 558.712C1478.86 559.528 1479.88 560.68 1480.6 562.168C1481.32 563.656 1481.68 565.42 1481.68 567.46C1481.68 569.476 1481.32 571.24 1480.6 572.752C1479.88 574.24 1478.86 575.392 1477.54 576.208C1476.25 577.024 1474.72 577.432 1472.97 577.432ZM1472.97 574.552C1474.72 574.552 1476.08 573.928 1477.04 572.68C1478.02 571.408 1478.52 569.668 1478.52 567.46C1478.52 565.252 1478.02 563.524 1477.04 562.276C1476.08 561.004 1474.72 560.368 1472.97 560.368C1471.22 560.368 1469.85 561.004 1468.87 562.276C1467.91 563.524 1467.43 565.252 1467.43 567.46C1467.43 569.668 1467.91 571.408 1468.87 572.68C1469.85 573.928 1471.22 574.552 1472.97 574.552ZM1487.72 582.4V579.736H1493.77C1494.7 579.736 1495.4 579.532 1495.85 579.124C1496.33 578.716 1496.57 577.936 1496.57 576.784V557.92H1499.6V577C1499.6 578.752 1499.17 580.084 1498.3 580.996C1497.44 581.932 1496.05 582.4 1494.13 582.4H1487.72ZM1488.08 560.584V557.92H1498.3V560.584H1488.08ZM1496.39 554.932V551.404H1499.56V554.932H1496.39ZM1516.47 577.432C1514.67 577.432 1513.11 577.024 1511.79 576.208C1510.49 575.392 1509.48 574.24 1508.76 572.752C1508.07 571.24 1507.72 569.476 1507.72 567.46C1507.72 565.444 1508.07 563.692 1508.76 562.204C1509.48 560.716 1510.48 559.564 1511.75 558.748C1513.05 557.908 1514.57 557.488 1516.32 557.488C1517.98 557.488 1519.44 557.884 1520.72 558.676C1521.99 559.444 1522.98 560.572 1523.7 562.06C1524.42 563.548 1524.78 565.36 1524.78 567.496V568.396H1510.89C1511.01 570.436 1511.55 571.972 1512.51 573.004C1513.49 574.036 1514.81 574.552 1516.47 574.552C1517.72 574.552 1518.74 574.264 1519.53 573.688C1520.34 573.088 1520.91 572.308 1521.22 571.348L1524.46 571.6C1523.96 573.304 1523 574.708 1521.58 575.812C1520.19 576.892 1518.48 577.432 1516.47 577.432ZM1510.89 565.732H1521.47C1521.33 563.884 1520.79 562.528 1519.85 561.664C1518.92 560.8 1517.74 560.368 1516.32 560.368C1514.86 560.368 1513.65 560.824 1512.69 561.736C1511.75 562.624 1511.15 563.956 1510.89 565.732ZM1538.23 577.432C1536.46 577.432 1534.91 577.024 1533.59 576.208C1532.27 575.392 1531.25 574.24 1530.53 572.752C1529.81 571.24 1529.45 569.476 1529.45 567.46C1529.45 565.444 1529.81 563.692 1530.53 562.204C1531.25 560.716 1532.27 559.564 1533.59 558.748C1534.91 557.908 1536.46 557.488 1538.23 557.488C1539.65 557.488 1540.91 557.752 1542.01 558.28C1543.12 558.784 1544.03 559.528 1544.75 560.512C1545.47 561.496 1545.96 562.696 1546.23 564.112L1543.06 564.328C1542.77 563.056 1542.19 562.084 1541.33 561.412C1540.49 560.716 1539.46 560.368 1538.23 560.368C1536.48 560.368 1535.1 561.004 1534.09 562.276C1533.11 563.524 1532.62 565.252 1532.62 567.46C1532.62 569.668 1533.11 571.408 1534.09 572.68C1535.1 573.928 1536.48 574.552 1538.23 574.552C1539.46 574.552 1540.51 574.192 1541.4 573.472C1542.31 572.752 1542.91 571.672 1543.2 570.232L1546.37 570.448C1546.11 571.864 1545.6 573.1 1544.86 574.156C1544.11 575.188 1543.18 575.992 1542.05 576.568C1540.92 577.144 1539.65 577.432 1538.23 577.432ZM1562.12 577C1560.28 577 1558.9 576.568 1557.98 575.704C1557.07 574.84 1556.62 573.52 1556.62 571.744V553.456H1559.64V571.744C1559.64 572.632 1559.84 573.292 1560.25 573.724C1560.66 574.132 1561.28 574.336 1562.12 574.336H1567.24V577H1562.12ZM1550.32 560.584V557.92H1567.24V560.584H1550.32Z" fill="black"/>
<path d="M1235.5 577L1231.72 557.92H1235.03L1237.52 573.832L1240.32 560.584H1243.28L1246.08 573.832L1248.57 557.92H1251.88L1248.14 577H1244.32L1241.8 564.976L1239.28 577H1235.5ZM1263.71 577.432C1261.91 577.432 1260.35 577.024 1259.03 576.208C1257.73 575.392 1256.73 574.24 1256.01 572.752C1255.31 571.24 1254.96 569.476 1254.96 567.46C1254.96 565.444 1255.31 563.692 1256.01 562.204C1256.73 560.716 1257.72 559.564 1258.99 558.748C1260.29 557.908 1261.81 557.488 1263.57 557.488C1265.22 557.488 1266.69 557.884 1267.96 558.676C1269.23 559.444 1270.23 560.572 1270.95 562.06C1271.67 563.548 1272.03 565.36 1272.03 567.496V568.396H1258.13C1258.25 570.436 1258.79 571.972 1259.75 573.004C1260.73 574.036 1262.05 574.552 1263.71 574.552C1264.96 574.552 1265.98 574.264 1266.77 573.688C1267.59 573.088 1268.15 572.308 1268.46 571.348L1271.7 571.6C1271.2 573.304 1270.24 574.708 1268.82 575.812C1267.43 576.892 1265.73 577.432 1263.71 577.432ZM1258.13 565.732H1268.71C1268.57 563.884 1268.03 562.528 1267.09 561.664C1266.16 560.8 1264.98 560.368 1263.57 560.368C1262.1 560.368 1260.89 560.824 1259.93 561.736C1258.99 562.624 1258.39 563.956 1258.13 565.732ZM1286.16 577.432C1284.84 577.432 1283.66 577.144 1282.63 576.568C1281.6 575.968 1280.81 575.152 1280.26 574.12L1280.15 577H1277.41V551.44H1280.44V560.584C1280.92 559.792 1281.66 559.084 1282.67 558.46C1283.68 557.812 1284.84 557.488 1286.16 557.488C1287.84 557.488 1289.29 557.896 1290.52 558.712C1291.74 559.528 1292.68 560.68 1293.32 562.168C1294 563.656 1294.33 565.42 1294.33 567.46C1294.33 569.5 1294 571.264 1293.32 572.752C1292.68 574.24 1291.74 575.392 1290.52 576.208C1289.29 577.024 1287.84 577.432 1286.16 577.432ZM1285.98 574.552C1287.59 574.552 1288.85 573.916 1289.76 572.644C1290.7 571.372 1291.16 569.644 1291.16 567.46C1291.16 565.252 1290.7 563.524 1289.76 562.276C1288.85 561.004 1287.61 560.368 1286.05 560.368C1284.88 560.368 1283.87 560.656 1283.03 561.232C1282.19 561.784 1281.54 562.588 1281.08 563.644C1280.65 564.7 1280.44 565.972 1280.44 567.46C1280.44 568.9 1280.65 570.16 1281.08 571.24C1281.54 572.296 1282.18 573.112 1282.99 573.688C1283.83 574.264 1284.83 574.552 1285.98 574.552ZM1306.31 577V557.92H1309.33V577H1306.31ZM1298.64 577V574.336H1315.92V577H1298.64ZM1299 560.584V557.92H1309.33V560.584H1299ZM1306.02 554.932V551.404H1309.19V554.932H1306.02ZM1320.37 577V557.92H1323.14L1323.25 562.78L1322.89 562.456C1323.13 561.328 1323.56 560.404 1324.18 559.684C1324.83 558.94 1325.6 558.388 1326.49 558.028C1327.38 557.668 1328.31 557.488 1329.3 557.488C1330.76 557.488 1331.97 557.812 1332.93 558.46C1333.92 559.108 1334.66 559.984 1335.16 561.088C1335.67 562.168 1335.92 563.38 1335.92 564.724V577H1332.9V565.588C1332.9 563.812 1332.55 562.468 1331.85 561.556C1331.16 560.62 1330.09 560.152 1328.65 560.152C1327.66 560.152 1326.78 560.368 1325.98 560.8C1325.19 561.208 1324.56 561.82 1324.08 562.636C1323.62 563.428 1323.39 564.412 1323.39 565.588V577H1320.37ZM1343.9 582.4V579.736H1346.09C1346.77 579.736 1347.26 579.628 1347.57 579.412C1347.91 579.22 1348.16 578.896 1348.33 578.44L1349.01 576.64H1347.97L1340.87 557.92H1344.19L1349.98 573.832L1355.42 557.92H1358.73L1350.99 579.412C1350.63 580.444 1350.09 581.2 1349.37 581.68C1348.65 582.16 1347.65 582.4 1346.38 582.4H1343.9Z" fill="white"/>
<rect x="1597.5" y="532.5" width="245" height="63" rx="19.5" fill="white"/>
<rect x="1597.5" y="532.5" width="245" height="63" rx="19.5" stroke="#E8E8E8"/>
<path d="M1683.92 578V555.28C1683.92 554.427 1683.68 553.76 1683.2 553.28C1682.72 552.8 1682.05 552.56 1681.2 552.56H1676.2V549.6H1681.36C1683.31 549.6 1684.77 550.107 1685.76 551.12C1686.77 552.107 1687.28 553.573 1687.28 555.52V578H1683.92ZM1675.4 578V575.04H1694.6V578H1675.4ZM1707.9 578V556.8H1711.26V578H1707.9ZM1699.38 578V575.04H1718.58V578H1699.38ZM1699.78 559.76V556.8H1711.26V559.76H1699.78ZM1707.58 553.48V549.56H1711.1V553.48H1707.58ZM1722.73 578V556.8H1725.81L1725.93 562.2L1725.53 561.84C1725.8 560.587 1726.28 559.56 1726.97 558.76C1727.69 557.933 1728.54 557.32 1729.53 556.92C1730.52 556.52 1731.56 556.32 1732.65 556.32C1734.28 556.32 1735.62 556.68 1736.69 557.4C1737.78 558.12 1738.61 559.093 1739.17 560.32C1739.73 561.52 1740.01 562.867 1740.01 564.36V578H1736.65V565.32C1736.65 563.347 1736.26 561.853 1735.49 560.84C1734.72 559.8 1733.53 559.28 1731.93 559.28C1730.84 559.28 1729.85 559.52 1728.97 560C1728.09 560.453 1727.38 561.133 1726.85 562.04C1726.34 562.92 1726.09 564.013 1726.09 565.32V578H1722.73ZM1746.15 578V549.6H1749.51V568.2L1759.83 556.8H1764.31L1755.95 565.8L1764.71 578H1760.63L1753.67 568.08L1749.51 572.48V578H1746.15Z" fill="#111111"/>
<defs>
<filter id="filter0_d_47_3462" x="34" y="34" width="2730" height="881" filterUnits="userSpaceOnUse" color-interpolation-filters="sRGB">
<feFlood flood-opacity="0" result="BackgroundImageFix"/>
<feColorMatrix in="SourceAlpha" type="matrix" values="0 0 0 0 0 0 0 0 0 0 0 0 0 0 0 0 0 0 127 0" result="hardAlpha"/>
<feOffset dy="4"/>
<feGaussianBlur stdDeviation="6"/>
<feComposite in2="hardAlpha" operator="out"/>
<feColorMatrix type="matrix" values="0 0 0 0 0.0666667 0 0 0 0 0.0666667 0 0 0 0 0.0666667 0 0 0 0.05 0"/>
<feBlend mode="normal" in2="BackgroundImageFix" result="effect1_dropShadow_47_3462"/>
<feBlend mode="normal" in="SourceGraphic" in2="effect1_dropShadow_47_3462" result="shape"/>
</filter>
<filter id="filter1_d_47_3462" x="2195.92" y="346.666" width="506.167" height="374.666" filterUnits="userSpaceOnUse" color-interpolation-filters="sRGB">
<feFlood flood-opacity="0" result="BackgroundImageFix"/>
<feColorMatrix in="SourceAlpha" type="matrix" values="0 0 0 0 0 0 0 0 0 0 0 0 0 0 0 0 0 0 127 0" result="hardAlpha"/>
<feOffset dy="4"/>
<feGaussianBlur stdDeviation="6"/>
<feComposite in2="hardAlpha" operator="out"/>
<feColorMatrix type="matrix" values="0 0 0 0 0.0666667 0 0 0 0 0.0666667 0 0 0 0 0.0666667 0 0 0 0.05 0"/>
<feBlend mode="normal" in2="BackgroundImageFix" result="effect1_dropShadow_47_3462"/>
<feBlend mode="normal" in="SourceGraphic" in2="effect1_dropShadow_47_3462" result="shape"/>
</filter>
<filter id="filter2_d_47_3462" x="154" y="330" width="538" height="476" filterUnits="userSpaceOnUse" color-interpolation-filters="sRGB">
<feFlood flood-opacity="0" result="BackgroundImageFix"/>
<feColorMatrix in="SourceAlpha" type="matrix" values="0 0 0 0 0 0 0 0 0 0 0 0 0 0 0 0 0 0 127 0" result="hardAlpha"/>
<feOffset dy="4"/>
<feGaussianBlur stdDeviation="6"/>
<feComposite in2="hardAlpha" operator="out"/>
<feColorMatrix type="matrix" values="0 0 0 0 0.0666667 0 0 0 0 0.0666667 0 0 0 0 0.0666667 0 0 0 0.05 0"/>
<feBlend mode="normal" in2="BackgroundImageFix" result="effect1_dropShadow_47_3462"/>
<feBlend mode="normal" in="SourceGraphic" in2="effect1_dropShadow_47_3462" result="shape"/>
</filter>
<filter id="filter3_d_47_3462" x="195" y="485" width="77" height="77" filterUnits="userSpaceOnUse" color-interpolation-filters="sRGB">
<feFlood flood-opacity="0" result="BackgroundImageFix"/>
<feColorMatrix in="SourceAlpha" type="matrix" values="0 0 0 0 0 0 0 0 0 0 0 0 0 0 0 0 0 0 127 0" result="hardAlpha"/>
<feOffset dy="4"/>
<feGaussianBlur stdDeviation="6"/>
<feComposite in2="hardAlpha" operator="out"/>
<feColorMatrix type="matrix" values="0 0 0 0 0.0666667 0 0 0 0 0.0666667 0 0 0 0 0.0666667 0 0 0 0.05 0"/>
<feBlend mode="normal" in2="BackgroundImageFix" result="effect1_dropShadow_47_3462"/>
<feBlend mode="normal" in="SourceGraphic" in2="effect1_dropShadow_47_3462" result="shape"/>
</filter>
<filter id="filter4_d_47_3462" x="195" y="617" width="77" height="77" filterUnits="userSpaceOnUse" color-interpolation-filters="sRGB">
<feFlood flood-opacity="0" result="BackgroundImageFix"/>
<feColorMatrix in="SourceAlpha" type="matrix" values="0 0 0 0 0 0 0 0 0 0 0 0 0 0 0 0 0 0 127 0" result="hardAlpha"/>
<feOffset dy="4"/>
<feGaussianBlur stdDeviation="6"/>
<feComposite in2="hardAlpha" operator="out"/>
<feColorMatrix type="matrix" values="0 0 0 0 0.0666667 0 0 0 0 0.0666667 0 0 0 0 0.0666667 0 0 0 0.05 0"/>
<feBlend mode="normal" in2="BackgroundImageFix" result="effect1_dropShadow_47_3462"/>
<feBlend mode="normal" in="SourceGraphic" in2="effect1_dropShadow_47_3462" result="shape"/>
</filter>
<filter id="filter5_d_47_3462" x="195" y="551" width="77" height="77" filterUnits="userSpaceOnUse" color-interpolation-filters="sRGB">
<feFlood flood-opacity="0" result="BackgroundImageFix"/>
<feColorMatrix in="SourceAlpha" type="matrix" values="0 0 0 0 0 0 0 0 0 0 0 0 0 0 0 0 0 0 127 0" result="hardAlpha"/>
<feOffset dy="4"/>
<feGaussianBlur stdDeviation="6"/>
<feComposite in2="hardAlpha" operator="out"/>
<feColorMatrix type="matrix" values="0 0 0 0 0.0666667 0 0 0 0 0.0666667 0 0 0 0 0.0666667 0 0 0 0.05 0"/>
<feBlend mode="normal" in2="BackgroundImageFix" result="effect1_dropShadow_47_3462"/>
<feBlend mode="normal" in="SourceGraphic" in2="effect1_dropShadow_47_3462" result="shape"/>
</filter>
<filter id="filter6_d_47_3462" x="195" y="683" width="77" height="77" filterUnits="userSpaceOnUse" color-interpolation-filters="sRGB">
<feFlood flood-opacity="0" result="BackgroundImageFix"/>
<feColorMatrix in="SourceAlpha" type="matrix" values="0 0 0 0 0 0 0 0 0 0 0 0 0 0 0 0 0 0 127 0" result="hardAlpha"/>
<feOffset dy="4"/>
<feGaussianBlur stdDeviation="6"/>
<feComposite in2="hardAlpha" operator="out"/>
<feColorMatrix type="matrix" values="0 0 0 0 0.0666667 0 0 0 0 0.0666667 0 0 0 0 0.0666667 0 0 0 0.05 0"/>
<feBlend mode="normal" in2="BackgroundImageFix" result="effect1_dropShadow_47_3462"/>
<feBlend mode="normal" in="SourceGraphic" in2="effect1_dropShadow_47_3462" result="shape"/>
</filter>
<linearGradient id="paint0_linear_47_3462" x1="778" y1="566.5" x2="1001" y2="566.5" gradientUnits="userSpaceOnUse">
<stop stop-color="#666666"/>
<stop offset="1" stop-color="#FA5A28"/>
</linearGradient>
<linearGradient id="paint1_linear_47_3462" x1="1898" y1="566.5" x2="2121" y2="566.5" gradientUnits="userSpaceOnUse">
<stop stop-color="#666666"/>
<stop offset="1" stop-color="#FA5A28"/>
</linearGradient>
</defs>
</svg>
